<svg xmlns="http://www.w3.org/2000/svg" width="2446" height="1588"  fill-rule="evenodd" xmlns:v="https://vecta.io/nano"><path fill="#8359fe" d="M0 0h2446v1588H0z"/><g fill="#9672fe"><path d="M553.583 526H815h0v1062H169V910.583c0-133.728 13.924-182.221 40.07-231.11s64.514-87.257 113.403-113.403S419.855 526 553.583 526zm-769.166 427H-477h0V-136h646v704.417c0 133.728-13.924 182.221-40.07 231.11S64.416 886.784 15.527 912.93-81.855 953-215.583 953z"/><path d="M-241.583 1145H-503h0v1089h646v-704.417c0-133.728-13.924-182.221-40.07-231.11s-64.514-87.257-113.403-113.403-97.382-40.07-231.11-40.07zm1318-618H815h0V-590h646v732.417c0 133.728-13.924 182.221-40.07 231.11s-64.514 87.257-113.403 113.403-97.382 40.07-231.11 40.07zm688 466H1503h0V0h646v608.417c0 133.728-13.924 182.221-40.07 231.11s-64.514 87.257-113.403 113.403-97.382 40.07-231.11 40.07zM2623.583-40H2885h0v993h-646V344.583c0-133.728 13.924-182.221 40.07-231.11S2343.584 26.216 2392.473.07 2489.855-40 2623.583-40z"/><circle cx="1138" cy="850" r="323"/><circle cx="1784" cy="1316" r="323"/><circle cx="2514" cy="1316" r="323"/></g></svg>