<?xml version="1.0" encoding="UTF-8"?>
<svg width="2446px" height="1588px" viewBox="0 0 2446 1588" version="1.1" xmlns="http://www.w3.org/2000/svg" xmlns:xlink="http://www.w3.org/1999/xlink">
    <title>Artboard</title>
    <g id="Artboard" stroke="none" stroke-width="1" fill="none" fill-rule="evenodd">
        <rect fill="#8359FE" x="0" y="0" width="2446" height="1588"></rect>
        <path d="M553.58278,526 L815,526 L815,526 L815,1588 L169,1588 L169,910.58278 C169,776.854969 182.923842,728.362033 209.069906,679.473144 C235.215969,630.584256 273.584256,592.215969 322.473144,566.069906 C371.362033,539.923842 419.854969,526 553.58278,526 Z" id="Rectangle" fill="#9672FE"></path>
        <path d="M-92.41722,-136 L169,-136 L169,-136 L169,953 L-477,953 L-477,248.58278 C-477,114.854969 -463.076158,66.3620334 -436.930094,17.4731445 C-410.784031,-31.4157444 -372.415744,-69.7840305 -323.526856,-95.9300944 C-274.637967,-122.076158 -226.145031,-136 -92.41722,-136 Z" id="Rectangle" fill="#9672FE" transform="translate(-154.000000, 408.500000) rotate(180.000000) translate(154.000000, -408.500000) "></path>
        <path d="M-118.41722,1145 L143,1145 L143,1145 L143,2234 L-503,2234 L-503,1529.58278 C-503,1395.85497 -489.076158,1347.36203 -462.930094,1298.47314 C-436.784031,1249.58426 -398.415744,1211.21597 -349.526856,1185.06991 C-300.637967,1158.92384 -252.145031,1145 -118.41722,1145 Z" id="Rectangle" fill="#9672FE" transform="translate(-180.000000, 1689.500000) scale(-1, 1) translate(180.000000, -1689.500000) "></path>
        <path d="M1199.58278,-590 L1461,-590 L1461,-590 L1461,527 L815,527 L815,-205.41722 C815,-339.145031 828.923842,-387.637967 855.069906,-436.526856 C881.215969,-485.415744 919.584256,-523.784031 968.473144,-549.930094 C1017.36203,-576.076158 1065.85497,-590 1199.58278,-590 Z" id="Rectangle" fill="#9672FE" transform="translate(1138.000000, -31.500000) rotate(180.000000) translate(-1138.000000, 31.500000) "></path>
        <path d="M1887.58278,4.24997803e-14 L2149,0 L2149,0 L2149,993 L1503,993 L1503,384.58278 C1503,250.854969 1516.92384,202.362033 1543.06991,153.473144 C1569.21597,104.584256 1607.58426,66.2159695 1656.47314,40.0699056 C1705.36203,13.9238417 1753.85497,-2.46935963e-14 1887.58278,4.24997803e-14 Z" id="Rectangle" fill="#9672FE" transform="translate(1826.000000, 496.500000) rotate(180.000000) translate(-1826.000000, -496.500000) "></path>
        <path d="M2623.58278,-40 L2885,-40 L2885,-40 L2885,953 L2239,953 L2239,344.58278 C2239,210.854969 2252.92384,162.362033 2279.06991,113.473144 C2305.21597,64.5842556 2343.58426,26.2159695 2392.47314,0.0699055668 C2441.36203,-26.0761583 2489.85497,-40 2623.58278,-40 Z" id="Rectangle" fill="#9672FE"></path>
        <circle id="Oval" fill="#9672FE" cx="1138" cy="850" r="323"></circle>
        <circle id="Oval" fill="#9672FE" cx="1784" cy="1316" r="323"></circle>
        <circle id="Oval" fill="#9672FE" cx="2514" cy="1316" r="323"></circle>
    </g>
</svg>