
<svg   viewBox="0 0 453 499" version="1.1" xmlns="http://www.w3.org/2000/svg" xmlns:xlink="http://www.w3.org/1999/xlink">
    <title>Person</title>
    <g id="Introduction" stroke="none" stroke-width="1" fill="none" fill-rule="evenodd">
        <g id="Artboard" transform="translate(-397.000000, -347.000000)">
            <g id="a-person/bust" transform="translate(323.000000, 237.000000)">
                <g id="body/Macbook" transform="translate(66.253521, 288.029354)" fill-rule="evenodd">
                    <path d="M448.938323,94.4196009 C442.502533,95.0515527 436.066743,95.6826029 429.630953,96.3145546 C398.808189,98.6697242 367.997605,103.58831 337.410797,106.540273 C336.64924,105.30071 335.158609,105.5049 334.253583,106.366283 C331.201489,106.098988 327.780798,103.765906 325.016092,106.192744 C324.926312,106.180123 324.836531,106.165249 324.745848,106.156684 C319.823247,96.7076088 316.420602,86.6292859 313.118115,76.5374405 C311.010298,70.3328645 308.174309,64.3266185 302.93364,60.1607855 C293.989855,53.951702 273.497289,41.3608977 262.995198,41.8900784 C262.821051,40.0095487 261.944448,38.071323 260.505249,36.8191391 C263.677352,31.4105879 250.993905,27.8816649 250.099256,28.5086583 C250.67268,10.4389858 242.173737,-5.25343038 223.433475,-8.85176893 C206.644477,-12.3504917 182.765057,-12.9382699 173.735551,4.60898319 C172.743,4.49719715 162.59716,4.44436923 161.615437,4.55435227 C160.089165,2.62108482 143.327694,20.9405097 150.197499,27.3181737 C88.7789033,54.490295 53.8561601,51.2481026 36.8564708,127.636282 C34.5582644,134.812225 34.3908842,142.664743 31.9640974,149.680669 C23.3302584,169.843175 16.3273609,191.312856 14.5845318,213.251768 C10.3752138,214.330413 9.89111972,221.752916 14.7668002,222.826603 C16.6291866,223.237236 18.1865891,223.797969 19.5445792,224.861289 C18.4830009,242.83991 22.8308248,283.90956 25.5702652,283.7829 C31.1560708,301.561838 56.0717161,306.579506 73.7111495,300.331658 C70.6703346,306.05303 73.7111495,309.65036 73.7111495,312.707306 C137.182521,315.108903 206.581766,313.725782 270.035542,317.019414 C278.152352,316.904022 286.689643,319.013082 294.695468,317.799212 C299.577916,316.628613 299.586037,308.950986 294.633659,308.001706 L316.273227,303.301225 C315.789584,303.118671 325.193179,296.863269 332.300294,285.173965 C338.915646,272.097703 334.413293,256.313424 337.410797,242.089552 C360.822365,240.174765 384.621027,239.356062 407.776337,235.390813 C410.933551,244.838086 424.600525,233.539582 428.94474,228.994668 C428.939326,228.987456 428.933912,228.980695 428.928498,228.973483 C431.030901,228.398326 432.716884,226.427646 432.773279,224.094563 C434.247668,221.987757 434.557164,219.018215 433.14323,216.982176 C439.623685,179.584337 449.503175,141.400389 453.074102,103.650964 C454.336446,103.371499 455.525252,102.817978 456.533142,101.965159 L456.451482,101.883573 C458.159121,99.9796042 458.491174,96.6931848 455.644358,95.0754424 C453.347956,93.7691684 451.430528,94.1743928 448.938323,94.4196009 Z" id="âœ‹-Skin" fill="#FFFFFF"></path>
                    <path d="M204.169014,234.390085 L209.126761,237.545336 L249.690141,250.617091 L274.478873,253.772342 L294.760563,250.617091 L294.760563,285.324853 L298.816901,317.778865 C297.014085,321.084366 279.887324,321.084366 247.43662,317.778865 C226.750145,315.671694 151.146409,314.649403 133.933084,314.199561 L132.957746,314.172864 C112.730294,313.58936 92.7490729,313.58936 73.0140845,314.172864 L73.0140845,302.002609 L129.352113,274.056099 L179.830986,245.658839 L204.169014,234.390085 Z M175.427173,1.77229441 L179.152588,4.55435227 L171.018777,17.9191443 L210.641489,49.9722902 L210.641489,75.5744666 L223.185717,87.4402838 L230.355904,75.5744666 L240.459326,62.1370009 L247.639444,40.3549344 L245.194713,26.0045727 L250.111127,25.5413433 C250.134913,26.5221252 250.130891,27.511774 250.099256,28.5086583 C250.993905,27.8816649 263.677352,31.4105879 260.505249,36.8191391 C261.944448,38.071323 262.821051,40.0095487 262.995198,41.8900784 C273.497289,41.3608977 293.989855,53.951702 302.93364,60.1607855 C308.174309,64.3266185 311.010298,70.3328645 313.118115,76.5374405 L313.614416,78.0510389 L314.126814,79.6048492 L314.643073,81.1574583 C317.495231,89.6925873 320.574941,98.1505082 324.745848,106.156684 C324.836531,106.165249 324.926312,106.180123 325.016092,106.192744 C327.780798,103.765906 331.201489,106.098988 334.253583,106.366283 C335.137562,105.524932 336.580225,105.310563 337.356499,106.456124 L337.410797,106.540273 L299.384314,114.032138 L274.297835,202.038403 L252.451015,184.303136 L240.724552,186.047211 L209.757141,197.217378 L173.740081,206.573909 L91.517945,229.244414 L81.0472336,229.244414 L20.1189834,214.529534 L14.6280681,212.71692 C16.4413041,190.963942 23.400432,169.679299 31.9640974,149.680669 C34.3908842,142.664743 34.5582644,134.812225 36.8564708,127.636282 C53.8561601,51.2481026 88.7789033,54.490295 150.197499,27.3181737 C143.327694,20.9405097 160.089165,2.62108482 161.615437,4.55435227 L161.711647,4.54600576 L161.919654,4.53487025 L162.187655,4.52551668 C164.583701,4.45583636 172.844888,4.50867228 173.735551,4.60898319 C174.252181,3.60500307 174.817425,2.66039066 175.427173,1.77229441 Z" id="ðŸ‘•-Top" fill="#FFFFFF"></path>
                    <path d="M455.01625,97.0917831 L453.883578,103.404408 C453.614384,103.492573 453.340498,103.567231 453.06306,103.628652 C452.707078,107.391852 452.288402,111.15937 451.81665,114.929997 L444.794278,154.072914 C443.583057,160.997888 442.433234,167.937605 441.291818,174.879766 L439.779283,182.33657 L438.842573,186.971089 C436.820468,197.007696 434.856066,207.011593 433.132188,216.959864 C433.39237,217.334522 433.594195,217.740788 433.741144,218.167472 L433.608483,218.728206 L433.516246,219.102091 L433.42188,219.471416 C432.061751,224.700419 429.69509,229.771105 424.117771,231.309856 C419.910769,232.469942 415.294739,232.575081 410.950621,233.032962 L410.469095,233.085361 L334.453771,241.634739 C325.268779,242.667498 316.088114,243.731413 306.908315,244.806636 L298.950369,245.740084 C287.85843,247.024656 276.7027,248.035575 265.774109,250.360812 C265.372531,250.446454 265.039912,250.606921 264.768588,250.817872 C266.969376,242.486657 269.075968,234.16626 270.985151,225.750754 C273.134109,216.279141 275.173545,206.789047 277.472137,197.351691 C282.102672,178.339049 287.293433,159.451265 292.975912,140.725751 C294.1684,136.795585 295.388431,132.873245 296.635223,128.960035 L297.510073,126.224634 L298.183479,124.044862 C299.225407,120.721282 300.514768,117.305305 303.570165,115.472023 C307.145827,113.326319 312.02188,112.97061 316.077318,112.228562 L318.823534,111.712653 C322.932319,110.946003 327.046372,110.208463 331.165433,109.500034 C350.886447,106.107688 370.719236,103.386509 390.625038,101.342357 C411.338532,99.2149618 432.124204,97.832641 452.93508,97.1569937 L455.01625,97.0917831 Z M266.343619,227.603364 L266.537602,227.619565 L263.698165,250.319794 C263.244306,250.002015 262.667855,249.807291 261.964306,249.809094 C252.650616,249.836519 243.72264,246.859514 235.087156,243.586693 L233.772136,243.085511 L230.105806,241.676194 C226.379008,240.24816 222.63225,238.851628 218.815686,237.69338 L217.272869,237.22774 L216.48864,236.996128 C213.598983,236.152487 210.55926,235.385604 207.553454,235.194743 L207.143799,235.172334 L208.019067,234.71302 C208.147067,234.645858 208.259292,234.570583 208.358898,234.489448 C210.013433,234.612052 211.671123,234.578696 213.41625,234.264073 C216.698278,233.673139 219.889714,232.531389 222.820193,230.941593 L224.129023,230.23214 L224.664806,229.947854 L225.018764,229.764331 L225.37076,229.586303 C227.887631,228.331545 230.294255,227.545901 233.472137,228.214104 C237.079661,228.973545 240.24103,230.91793 243.492986,232.561057 L244.070127,232.848459 L244.458153,233.035964 L244.853745,233.222052 L245.254069,233.404977 C249.651647,235.383993 256.650342,237.519855 258.336588,231.54019 C259.013996,229.137691 258.483517,226.887997 257.308081,224.915514 C259.498503,224.725905 263.411623,227.308681 266.343619,227.603364 Z M375.809578,152.811363 L375.86257,153.08372 C376.484405,156.431693 374.924984,159.63435 372.565185,161.969156 C370.62941,163.883942 367.203607,164.948163 366.233241,167.702698 C365.680678,169.269956 366.268396,170.756079 367.403269,171.792354 L367.141883,171.92146 L366.886347,172.052092 L366.636868,172.184016 L366.393618,172.317019 L366.156733,172.450896 C362.301404,174.665962 359.161708,178.268295 362.638875,182.619373 C366.58336,187.555386 374.825437,187.71532 380.632439,187.329114 L381.023638,187.30173 C386.654423,186.879469 393.324462,184.987916 396.377692,179.788211 C397.77803,177.402841 397.623889,174.51804 395.671889,172.476593 C394.494199,171.245143 392.393467,169.980338 390.467157,169.830689 C390.551438,168.745283 390.422086,167.696838 390.04034,166.812015 C389.21465,164.899482 387.017467,163.611689 384.898255,163.565262 C385.069857,159.504163 381.817457,155.495528 379.422677,152.248974 L379.178176,151.915871 L378.940847,151.588379 C377.842072,150.059435 375.491017,150.916006 375.809578,152.811363 Z M379.022875,157.133959 L381.204734,165.307862 L381.167264,165.375092 C380.398716,166.83468 382.413387,168.491535 383.608375,167.265131 L383.728685,167.135457 C385.146931,165.670551 387.323911,167.639688 387.350988,169.198737 C387.389748,171.393567 385.961084,173.090541 384.258903,174.211602 L384.139718,174.28888 L383.825889,174.483871 C382.428954,175.407169 383.486537,177.337558 385.022199,177.102642 C386.922368,176.811908 388.479551,175.304599 389.439551,173.422717 C390.465354,173.716606 391.632678,173.680997 392.713016,174.285453 C395.435328,175.808111 393.869657,178.471876 392.096918,180.081851 L392.024947,180.146538 L391.880565,180.272317 C388.628181,183.04608 384.200045,184.009608 380.025986,184.216117 L379.785467,184.227199 C375.569129,184.407499 370.075945,184.467899 366.462199,181.987872 C364.213185,180.444503 363.561917,178.25566 365.465241,176.18266 C366.541523,175.011161 367.628171,173.829294 368.746819,172.687093 C370.421185,173.486273 371.916622,173.162184 373.628847,172.405825 C373.84834,172.308463 373.72665,171.972654 373.511664,171.972654 C372.566988,171.971752 369.100622,170.217884 368.932058,169.097319 C368.776314,168.060143 370.693816,167.185743 371.626247,166.684644 L371.761514,166.610525 L371.878762,166.542467 C372.854086,165.951533 373.772171,165.263689 374.611382,164.491103 C376.741317,162.53026 378.288302,160.070907 378.963868,157.379284 L379.022875,157.133959 Z" id="ðŸ’»-Computer" fill="#FFFFFF"></path>
                    <path d="M174.905602,0.533660816 C176.81794,-4.27268817 183.282391,-2.40432875 182.561714,2.64497458 C182.130391,5.66950817 180.474053,8.86397458 178.986278,11.5148363 C177.774785,13.6725773 176.392926,15.7784821 174.519348,17.3957737 C177.85456,20.5077528 181.316419,23.5061429 184.866165,26.3530809 C188.739517,29.4592003 192.812531,32.3223653 197.02256,34.9538448 C200.714278,37.2616856 204.572757,39.3062883 208.052644,41.9395708 C211.28825,44.3875949 214.235855,47.331895 215.735799,51.1754416 C217.333644,55.2684088 216.639245,59.4953166 215.462626,63.5855213 L215.327461,64.0479648 C214.125433,68.1002088 212.044531,72.9849883 214.92994,76.8028422 C216.398785,78.7464769 218.534222,80.1230679 220.378053,81.6768037 C222.016813,83.0579022 223.555067,84.5598017 224.965771,86.1730366 C228.041827,89.6897893 230.543686,93.646925 232.122503,98.0561631 L232.263692,98.4567374 C233.616933,102.359969 234.605929,107.141559 232.777376,110.973761 C232.252757,112.072239 230.560813,111.715245 230.266954,110.645615 C229.602616,108.222382 229.63732,105.684659 229.08025,103.227169 C228.500644,100.671416 227.536137,98.2454782 226.276419,95.9502583 C223.839081,91.5100252 220.538181,87.7172102 216.638325,84.5106474 L215.470897,83.5611841 C212.428562,81.0641973 209.633325,78.4152213 209.015799,74.282698 C208.355067,69.8612896 210.126334,65.6494801 211.265264,61.4647156 C212.058954,58.5483621 212.318109,55.7528095 211.460419,53.1172733 C210.412531,54.8278702 208.982898,56.4514723 207.852081,57.8997326 C205.599912,60.7849844 203.32656,63.6526569 201.059067,66.5257384 C198.734334,69.4718415 196.466841,72.4643718 194.307517,75.5344312 C193.341658,76.9078669 192.386165,78.2894162 191.433827,79.6723177 C190.717658,80.7117476 189.718898,81.750276 188.938278,82.8104403 C189.128024,83.377484 189.113602,84.0310718 188.769714,84.4953444 C184.629996,90.089154 178.740644,78.4174292 177.204644,75.4686217 C174.076757,69.4632773 171.748869,63.0833594 168.610616,57.0793673 C165.358785,50.855409 161.655799,44.7973268 157.5287,39.1151703 C155.03225,35.6782003 152.234278,32.4499276 149.95056,28.9038761 C144.570503,33.7827958 137.490841,37.053439 130.988081,40.0193751 C123.843346,43.2776549 116.420625,45.9394317 109.095239,48.7659335 L106.931367,49.6064646 C94.3095083,54.5328943 81.3792024,59.9451689 70.8880243,68.6956497 C58.5599117,78.9786132 51.2666159,93.3106654 45.8369821,108.152065 C39.5866159,125.23775 34.4156863,142.784553 29.5954046,160.320086 C27.1287004,169.292268 24.7881934,178.305018 22.5878553,187.346615 C20.6489257,195.312272 19.0417145,203.357261 16.7972074,211.240881 C21.3493201,211.079963 26.5409821,212.842397 30.4274046,213.351294 C48.13963,215.669952 65.6134328,219.366104 82.3359117,225.765404 C84.4014891,226.55602 84.9991229,228.619103 84.5493201,230.291386 C85.7405314,229.955127 86.9308412,229.614359 88.1220525,229.279903 C86.8169667,227.280006 87.4398686,223.7045 87.5424732,221.48784 L87.5487567,221.335431 C87.6542215,218.381665 87.9746722,215.424744 88.1824469,212.476387 C88.5780958,206.856018 89.0931788,201.276745 89.7780334,195.688579 L89.9528131,194.291323 C90.7289257,188.211605 91.3026722,182.096277 92.1495455,176.026926 L92.2496018,175.33232 C91.8435173,173.779486 91.3707286,172.245583 90.8745032,170.718442 C89.552137,166.650421 87.6857708,162.821299 86.0501652,158.881292 C85.8572638,158.41747 86.5179962,158.151076 86.8267286,158.429189 C89.5967567,160.921387 91.7970948,164.082948 93.5647567,167.389652 C93.5954046,167.233692 93.6224469,167.077282 93.6544469,166.921322 L93.856155,165.928411 C94.3535599,163.506959 94.95858,160.959264 96.4438553,158.995331 C96.6020525,158.786634 96.9148412,158.742911 97.064475,158.995331 C98.4859962,161.400985 98.6450948,164.447605 98.8636863,167.185011 C99.1111229,170.281665 99.1422215,173.417534 99.0985032,176.522751 C99.0133201,182.591201 98.5856018,188.676779 98.2448694,194.735312 C97.9106059,200.689032 97.254156,206.566889 96.4081612,212.46208 L96.2473483,213.567654 C95.8337896,216.373611 95.4952168,219.214414 94.9497385,222.001181 L94.79563,222.759802 C94.5040243,224.141802 94.3246441,226.090395 93.744137,227.709039 C108.679574,223.542755 123.637996,219.471579 138.624813,215.472073 C149.456588,212.580962 160.29963,209.733122 171.138165,206.867252 C171.710109,205.836387 172.422222,204.873584 173.31101,204.013102 C176.239236,201.176982 180.119799,199.911727 183.67901,202.09471 C183.968362,202.272756 183.9927,202.726211 183.67901,202.897947 C182.997095,203.270717 182.313827,203.652953 181.642729,204.051416 L188.150898,202.288532 C193.015348,200.970088 197.93794,199.322596 202.916869,198.403517 C212.087348,193.877534 221.95056,190.601482 231.610954,187.363744 L232.749325,186.97865 C237.695684,185.292133 242.811952,183.404097 247.922391,182.469048 C251.663686,181.784809 256.055348,182.610583 257.559799,186.443763 C259.464475,187.699102 261.256475,189.174407 262.985827,190.625372 C264.236081,191.673817 265.434503,192.788522 266.653207,193.873928 L266.877881,194.071186 C267.874192,194.935715 268.663442,195.514721 268.908081,196.890799 C269.034278,197.601632 268.582672,198.562631 267.706053,198.468425 C265.023912,198.181297 262.842954,195.072022 261.023912,193.215382 C259.618616,191.780194 258.202053,190.296324 256.919348,188.719149 C256.17163,189.126177 255.146729,189.053155 254.670785,188.151655 C252.202729,183.477827 245.441714,186.716466 241.700869,187.824861 L236.342025,189.411155 C233.662776,190.205435 230.984565,191.003641 228.310898,191.815803 C220.962616,194.047467 213.650391,196.545074 206.235405,198.594635 C206.898841,199.323948 206.807348,200.621207 205.547179,201.114779 C199.74301,203.392419 193.375461,204.57023 187.345489,206.13298 C183.538391,207.120574 179.733545,208.114027 175.930053,209.113341 C175.277883,210.169899 174.8087,211.365288 174.611292,212.756754 C173.885456,217.873008 175.285337,223.776051 176.64895,228.724426 L176.854358,229.462729 C177.975294,233.441154 179.624436,238.318195 183.056588,240.830376 C183.894447,241.442945 184.961264,241.869355 186.036644,241.965815 C192.755292,238.507209 199.473489,235.049054 206.195743,231.597209 C207.441038,230.957595 208.591686,231.823486 208.871123,232.852999 C211.241376,232.464002 213.606222,231.850982 215.760137,231.119865 C219.379292,229.890669 222.205207,227.546318 225.598109,225.924969 C232.163103,222.788614 238.867245,226.641139 244.745152,229.570054 L246.099862,230.23595 C248.735738,231.514974 254.219498,233.972094 255.484306,230.47394 C256.707517,227.089708 252.840024,223.472888 250.342222,221.949804 C247.364869,220.133731 243.898053,219.161914 240.533095,218.352367 C238.611743,217.889897 236.666954,217.512619 234.710447,217.237211 C232.491179,216.924841 230.198898,216.971719 228.062109,216.251871 C227.00025,215.894877 226.837095,214.20817 228.062109,213.929606 C231.351387,213.180959 235.277268,213.997572 238.709755,214.832068 L240.503799,215.274194 C243.962053,216.122956 247.453658,217.188079 250.60363,218.881097 C252.894109,220.112546 255.311686,221.983159 256.890954,224.27297 C258.262412,222.998873 259.969334,223.041947 261.747395,223.514489 L262.712482,223.782796 C264.306115,224.224473 265.597851,224.528481 267.148531,224.222486 C267.355855,223.094258 267.565883,221.96558 267.790785,220.836902 C270.000588,209.742137 272.424024,198.689743 275.098053,187.696397 C279.710501,168.734356 285.047688,149.980429 291.06468,131.418683 L291.668644,129.563149 C293.056362,125.317533 294.173207,120.691935 296.410503,116.791594 C298.52656,113.103556 301.916757,110.97917 305.9447,109.854098 C310.515743,108.577573 315.318898,107.909562 319.981883,107.047277 C321.022109,106.855257 322.065038,106.672703 323.106165,106.483839 C322.226315,104.895095 321.569585,103.091652 320.978026,101.707645 L320.874278,101.467891 C319.603427,98.5701535 318.461811,95.6202055 317.359404,92.6545214 L316.534761,90.4249878 C314.544307,85.0561949 312.489537,79.7755717 309.690954,74.7541827 C306.745151,69.4695878 302.837095,65.1491474 297.965433,61.5733464 C288.032813,54.2820118 276.060757,50.5628722 266.426954,42.7707541 C266.032137,42.451623 266.538278,41.9057645 266.938954,42.1077006 C273.443968,45.3765408 280.466391,47.5991898 287.232362,50.2604188 L288.567057,50.7870903 C293.914826,52.9072664 299.34587,55.215342 303.974672,58.6479778 C309.135236,62.4757482 313.199686,67.2293594 316.25456,72.8822172 C319.265264,78.4543908 321.191123,84.6914208 323.315292,90.6431259 L323.883416,92.2289835 C324.740199,94.607008 325.625151,96.9779277 326.639236,99.29212 C327.444193,101.129378 328.946391,103.226718 329.629207,105.325411 C331.497376,105.001322 333.365095,104.676331 335.235067,104.363961 C375.738503,97.6009054 416.694447,93.627092 457.741433,92.4646073 C459.347292,92.4190816 460.17794,93.9516321 459.94132,95.3525636 C456.002165,118.647783 452.501545,142.022785 448.660644,165.335583 C446.984024,175.510367 445.274053,185.677487 443.523968,195.83965 C442.637433,200.988118 441.612531,206.116753 440.772869,211.272885 C440.09501,215.436915 439.602841,219.633399 438.439123,223.700968 C437.395292,227.347988 435.793489,230.86474 433.162729,233.647221 C430.326898,236.646513 426.368813,238.098379 422.384588,238.784421 C412.270334,240.525218 401.896024,241.236051 391.699743,242.395831 L337.413771,248.572461 C338.207072,255.783841 338.26636,262.883029 337.902375,270.178363 L337.694933,274.160899 C337.525348,277.364212 337.322616,280.572342 336.86256,283.742693 C336.285658,287.719661 334.466616,291.087216 331.787179,294.05766 C329.326785,296.785599 326.337714,299.113273 323.430222,301.343585 C320.412306,303.659539 317.293883,305.89481 313.745489,307.326843 L313.284926,307.509658 C310.171972,308.725177 304.332391,310.607432 300.077433,309.919558 C300.633602,312.706546 301.709883,315.703133 300.755743,318.460823 C300.313151,319.741404 298.638785,320.380117 297.612982,319.290654 C295.580757,317.13111 295.422109,314.278763 294.940757,311.461574 C294.440024,308.529895 294.00825,305.587849 293.6247,302.63859 C292.882841,296.93615 292.305489,291.181423 292.129264,285.430752 C291.948081,279.525024 292.01794,273.611181 292.336137,267.711763 C292.499743,264.682271 292.70256,261.654583 293.08701,258.644473 C293.251067,257.360736 293.418729,256.076099 293.610278,254.795517 C293.680137,254.32854 293.757658,253.863817 293.841038,253.399995 L288.968557,253.949773 C281.497366,254.783929 274.022624,255.537195 266.498616,255.654196 C265.607574,255.667719 264.922053,255.262044 264.474053,254.67111 C263.996757,255.448654 263.165658,256.00488 261.975348,256.000372 C251.468081,255.961157 241.683292,252.525089 232.12656,248.475549 C227.309433,246.433651 222.567123,244.223172 217.742785,242.198853 C213.239799,240.309309 208.425827,238.961115 204.031461,236.832673 L192.484419,242.889853 C192.399686,243.187799 192.291067,243.469518 192.175686,243.70526 C191.423912,245.240065 189.941545,246.0726 188.42763,246.699594 C186.97456,247.302697 185.469658,247.490209 184.003517,247.337856 C175.246222,251.927394 166.486898,256.512622 157.721743,261.087074 L148.954503,265.657695 C131.48701,274.753382 114.088475,283.998268 96.5110103,292.8803 L95.2169539,293.53179 C89.1456298,296.576451 82.6262553,299.662708 75.8885877,301.96562 C75.7687004,303.671259 75.8444187,305.33002 75.9872919,307.135274 L76.0216854,307.528534 C76.2225705,309.66186 76.6533002,312.334942 74.9421088,313.853705 C74.051968,314.643419 72.4618835,314.646575 71.8565877,313.455693 C70.7582215,311.296149 71.7443624,307.891633 72.092306,305.545478 C72.215799,304.71114 72.3663342,303.853362 72.5889821,303.021277 C64.8648131,305.321005 56.9067286,306.43616 49.0464469,305.144761 C41.3934891,303.888521 35.4662779,299.066846 30.6879117,293.169231 C25.6449821,286.945723 22.0614328,279.692703 20.1387286,271.917713 C17.9505596,263.070389 17.8076863,253.933683 17.8590666,244.871351 C17.9136018,235.221241 18.2705596,225.523351 19.4441934,215.938149 C18.1583342,215.635695 16.732306,215.37426 15.4329257,215.46441 C14.7893201,216.494374 13.5408694,216.927996 12.4127567,216.794123 C9.95957364,219.499977 16.1819962,222.265329 18.1705032,222.957681 C18.8609821,223.198382 18.7870666,224.319848 17.9906722,224.286042 L17.4890281,224.262194 C14.4164145,224.098713 11.2419903,223.574051 9.43540462,220.718354 C7.98774265,218.429445 8.42267223,215.717732 10.1484187,213.851175 C11.2882497,203.072838 14.0132074,192.57712 16.5493201,182.062922 C19.0381088,171.742997 21.8058835,161.489332 24.7395173,151.287504 L26.0546833,146.721365 C30.6736348,130.724887 35.5015896,114.599341 41.8730384,99.2384808 C45.0545596,91.568516 48.7196863,84.039636 53.687799,77.3518559 C58.3187849,71.1175304 63.7862779,65.7829022 70.0708976,61.2267195 C81.7869605,52.7320079 95.5345481,47.5993024 109.042136,42.7091957 L109.646785,42.4903875 C116.646672,39.9580731 123.629433,37.3955584 130.549545,34.6518422 C136.669658,32.225454 142.532869,29.1490842 148.624137,26.6861853 C148.426278,26.3269374 148.235179,25.9636328 148.051292,25.5962714 L147.938683,25.6909957 C147.919436,25.7063045 147.899705,25.7211292 147.879123,25.7351024 C147.266616,26.1597091 146.364757,25.9510118 145.859968,25.4745688 C144.434648,24.1295212 144.917192,22.6364237 145.868585,21.2415014 L145.992475,21.0639785 C147.156193,19.4336152 148.194165,17.7099465 149.268193,16.0205349 L149.940758,14.9640384 C151.743556,12.1416127 153.638071,9.30035082 156.041827,6.96766864 C157.155067,5.88676975 158.373771,5.07812396 159.665038,4.47547099 C159.554616,4.24198241 160.522729,3.76463799 160.797207,4.00488782 C164.88825,2.50749578 169.594954,2.82121789 174.055123,3.23410504 M334.787067,248.870857 L329.099179,249.517684 C322.841602,250.229779 316.581591,250.918345 310.3208,251.600225 L296.72194,253.078159 C296.687236,253.853449 296.593038,254.611611 296.575912,255.197136 C296.487123,258.21581 296.420869,261.235836 296.358222,264.255411 C296.232475,270.308084 296.370391,276.366617 296.768813,282.407571 C297.15501,288.261125 297.663611,294.115472 298.453931,299.929385 L298.615799,301.091616 L298.709545,301.702833 C299.354503,301.765037 299.988193,302.071547 300.515067,302.701245 C301.665264,304.07468 305.830222,302.739558 307.456813,302.160795 C310.131743,301.208811 312.650729,299.600534 314.97501,297.98775 C317.244863,296.412988 319.288746,294.576698 321.252827,292.642348 L322.859833,291.052831 C324.458393,289.464151 326.058682,287.7717 327.038109,285.773322 C328.366334,283.063412 328.538053,279.736876 328.927461,276.785364 C329.40701,273.155022 329.978053,269.525131 330.581545,265.912819 M169.66932,210.763537 L169.079348,210.918595 C147.647912,216.613823 126.248475,222.477181 104.751236,227.920891 C94.1128131,230.615476 83.4239117,233.113984 72.7724187,235.756732 L71.0479144,236.188079 C62.6450243,238.312052 54.1412594,240.868337 47.7065032,246.963733 C47.4689821,247.188207 47.1241934,246.843383 47.3477426,246.604936 C54.2827286,239.221648 64.1459398,236.096147 73.616137,233.386688 C75.3666722,232.885904 77.119461,232.39684 78.8704469,231.898761 C65.9911229,227.306969 52.9085314,223.311971 39.523968,220.462779 C36.0774328,219.728958 32.5907849,219.190311 29.1469539,218.453785 C26.7451962,217.939795 24.3996593,217.196882 22.0232739,216.580589 L20.1540525,216.110335 L20.1292279,222.018599 C20.0981192,230.386805 20.112974,238.748189 20.5398553,247.115185 L20.6206633,248.665119 C21.1187194,257.976406 21.8961429,267.481027 25.200137,276.260691 C27.8849821,283.395164 32.1644187,290.1163 37.7608131,295.312999 C40.5925877,297.942224 43.6370948,299.989081 47.400475,300.999663 C50.8947849,301.937674 54.5558553,302.047657 58.147968,301.797491 C75.3779398,300.59534 90.7154046,291.234611 105.682391,283.484413 C130.163292,270.807966 154.646898,258.13783 179.152588,245.510064 C178.490053,245.05706 177.866278,244.535091 177.298841,243.948665 C174.012757,240.554517 172.279348,235.908184 171.140869,231.408345 C169.928926,226.618674 169.204193,221.48508 169.119912,216.540351 M200.850436,250.403453 C201.066774,250.287159 201.317365,250.432752 201.327281,250.677058 C201.402999,252.548884 200.368662,254.395077 199.595837,256.081348 L199.514098,256.261402 C198.575281,258.350178 197.547224,260.411008 196.484013,262.439384 C194.358943,266.492078 192.150492,270.501501 189.845591,274.454129 C185.210548,282.405813 180.0599,290.022589 173.971788,296.946112 C172.596689,298.510215 170.335055,296.504827 171.217534,294.820825 C175.472182,286.702814 180.432182,279.037808 185.53776,271.439512 C188.093703,267.635181 190.647844,263.827243 193.229027,260.040041 C194.305835,258.459786 195.396414,256.885165 196.516414,255.334438 L197.192069,254.407016 M455.027292,97.1140953 C433.521038,97.7636262 412.040024,99.1663608 390.636081,101.364669 C370.730278,103.408821 350.897489,106.13 331.176475,109.522346 C327.057414,110.230775 322.943361,110.968315 318.834576,111.734966 L316.36994,112.198449 C312.260419,112.977346 307.240024,113.298731 303.581207,115.494335 C299.72363,117.808937 298.681151,122.646387 297.397545,126.635526 C295.888588,131.326934 294.41794,136.031864 292.986954,140.748063 C287.304475,159.473577 282.113714,178.361361 277.483179,197.374003 C275.184588,206.811359 273.145151,216.301453 270.996193,225.773067 C269.08701,234.188572 266.980419,242.508969 264.77963,250.840185 C265.050954,250.629234 265.383574,250.468766 265.785151,250.383124 C276.713743,248.057887 287.869472,247.046968 298.961411,245.762396 L300.034616,245.637175 C311.509095,244.28763 322.983574,242.948 334.464813,241.657052 L410.480137,233.107673 C414.963292,232.603735 419.765996,232.535221 424.128813,231.332168 C431.546395,229.285699 433.285029,220.992016 434.529556,214.38706 L434.567123,214.187435 C438.319236,194.231373 441.306053,174.101772 444.80532,154.095226 M266.548644,227.641877 C263.597433,227.447153 259.558222,224.744004 257.319123,224.937827 C258.49456,226.910309 259.025038,229.160003 258.34763,231.562502 C256.462334,238.248028 247.936362,234.788971 243.829545,232.746622 C240.462334,231.071184 237.210954,229.021172 233.483179,228.236416 C229.260081,227.348438 226.39901,229.027933 222.831236,230.963905 C219.900757,232.553701 216.70932,233.695451 213.427292,234.286385 C211.682165,234.601009 210.024475,234.634364 208.36994,234.51176 C208.270334,234.592895 208.158109,234.66817 208.030109,234.735332 L207.154841,235.194646 C211.112475,235.375848 215.143574,236.597381 218.826729,237.715692 C222.643292,238.87394 226.39005,240.270472 230.116848,241.698506 L233.783178,243.107823 C242.826749,246.571312 252.188081,249.860226 261.975348,249.831406 C262.678898,249.829603 263.255348,250.024327 263.709207,250.342106 M250.036779,206.693714 C252.952385,206.33717 255.64354,206.719406 257.97323,208.617515 C260.78292,210.906425 262.670469,214.702643 266.709681,214.951907 C267.887371,215.024478 268.160948,216.680534 266.990469,217.02671 C263.983822,217.916942 261.549568,216.290185 259.501117,214.177969 L258.12385,212.738853 C256.099526,210.642533 254.232525,209.021897 250.797568,209.147147 C247.11892,209.28147 243.433962,210.131585 239.779202,210.563855 C235.639033,211.053369 231.499765,211.470764 227.346526,211.830913 C227.153624,211.847591 227.120723,211.543785 227.301455,211.499161 L231.953266,210.341338 M247.222402,194.773085 L247.703261,194.724954 C251.937065,194.313808 255.80903,194.297855 259.590176,196.575635 L260.315395,197.014239 C263.724484,199.086497 267.435074,201.527876 269.566965,204.88296 C269.91581,205.432425 269.33936,206.07835 268.755698,205.938617 C264.658345,204.95508 261.662965,201.948577 258.217331,199.698432 C254.350289,197.173329 250.355698,197.589822 245.946458,197.981975 C241.677388,198.361957 237.410571,198.883926 233.183416,199.595661 C229.21136,200.263672 225.226683,201.318428 221.214514,201.654687 L221.215416,201.646574 C220.75705,201.645672 220.495641,200.957377 220.963022,200.723888 C225.034683,198.690554 229.750402,197.728203 234.179472,196.799207 M375.837523,152.923276 C375.428283,150.965668 377.835945,150.057857 378.951889,151.610691 L379.189218,151.938183 C381.600125,155.241445 385.086817,159.386437 384.909298,163.587574 C387.028509,163.634001 389.225692,164.921795 390.051382,166.834327 C390.433129,167.71915 390.562481,168.767595 390.478199,169.853001 C392.404509,170.00265 394.505241,171.267455 395.682931,172.498905 C397.634931,174.540352 397.789072,177.425153 396.388734,179.810523 C393.335505,185.010229 386.665466,186.901781 381.03468,187.324042 L380.83403,187.338502 C375.018143,187.740571 366.637748,187.63194 362.649917,182.641685 C358.803157,177.828124 363.05465,173.930938 367.414312,171.814666 C366.279438,170.778391 365.69172,169.292268 366.244283,167.72501 C367.21465,164.970476 370.640453,163.906254 372.576227,161.991468 C374.936026,159.656662 376.495447,156.454005 375.873613,153.106032 M379.033917,157.156271 C378.392565,159.94371 376.816903,162.493153 374.622424,164.513415 C373.783213,165.286001 372.865129,165.973845 371.889805,166.564779 L371.772556,166.632837 C370.906978,167.118802 368.779369,168.029266 368.9431,169.119631 C369.111664,170.240196 372.57803,171.994065 373.522706,171.994966 C373.737692,171.994966 373.859382,172.330775 373.639889,172.428137 C371.927664,173.184496 370.432227,173.508585 368.757861,172.709405 C367.639213,173.851606 366.552565,175.033473 365.476283,176.204973 C363.57296,178.277973 364.224227,180.466815 366.473241,182.010184 C370.086988,184.490211 375.580171,184.429811 379.796509,184.249511 C384.04034,184.068309 388.576678,183.121734 391.891607,180.294629 L392.035989,180.16885 C393.837601,178.566391 395.483158,175.850999 392.724058,174.307765 C391.64372,173.703309 390.476396,173.738918 389.450593,173.445029 C388.490593,175.326911 386.93341,176.83422 385.033241,177.124954 C383.497579,177.35987 382.439996,175.429481 383.836931,174.506183 L384.15076,174.311192 C385.904884,173.191513 387.401692,171.466922 387.36203,169.22105 C387.334954,167.662 385.157974,165.692863 383.739727,167.157769 L383.674819,167.227832 C382.488067,168.565672 380.397749,166.879798 381.178306,165.397404 L381.215776,165.330174 M102.247753,79.6365281 C102.242481,79.3016208 102.713467,79.1763122 102.877974,79.4661446 C105.632678,84.3130611 107.072678,90.254399 108.540171,95.5944362 C110.077072,101.188246 111.317861,106.83885 112.432453,112.530923 C114.69003,124.057055 115.89296,135.516927 115.974641,147.264378 C115.985805,148.941619 113.253636,149.387862 112.986368,147.669152 C111.211945,136.242184 109.511889,124.803497 107.723945,113.379685 C106.82434,107.633973 105.777354,101.910347 104.775438,96.1817636 M129.5191,88.0788533 C129.316283,87.4103908 130.288903,87.1868187 130.537692,87.798036 C136.06603,101.369673 137.938255,116.75017 134.38896,131.068249 C133.845861,133.258444 130.638199,132.309615 131.047889,130.146915 M200.828351,76.0195736 C200.800407,75.5192409 201.449872,75.4403596 201.694605,75.7847328 C204.314098,79.4759259 205.400745,84.4193029 209.996576,86.3268776 C212.291112,87.2793127 214.873196,87.1134366 216.900464,88.7221639 C218.255731,89.7981046 219.295055,91.4965312 218.277816,93.125993 C217.949703,93.6524692 217.031168,93.9161581 216.585872,93.3441561 C215.935957,92.5107191 215.592069,91.5127582 214.70914,90.8880185 C213.463844,90.0068019 211.78452,89.9522611 210.356689,89.5380217 C208.509703,89.0025305 206.88176,88.065421 205.548576,86.6730537 M244.59092,14.4543584 C244.860892,14.3168796 245.120047,14.4047759 245.292667,14.6382645 C245.539202,14.9709181 245.509005,15.2945567 245.207033,15.5226363 C245.610413,16.3470583 246.086807,18.4123956 246.154864,18.7130459 C246.430695,19.9318744 246.724103,21.1434908 247.031033,22.3542058 C247.6503,24.7959194 248.192948,27.2565645 248.812667,29.6991797 C249.469793,32.2882886 250.252667,34.8499018 251.123878,37.3745534 C251.180066,37.5380255 251.241862,37.7049032 251.30673,37.8742517 L251.406019,38.1300107 L251.430357,38.0912462 C251.607483,37.8113304 251.97616,38.0069559 251.932441,38.302648 C251.891878,38.5721966 251.837343,38.840393 251.791371,39.1099416 L251.882661,39.3514203 C252.452543,40.8853969 252.842819,42.5009576 251.79723,43.8545378 C251.406019,44.3607302 250.975596,44.6604791 250.439258,44.7497276 C249.579314,47.5849461 248.500329,50.3674269 247.345174,53.0394739 L247.006608,53.8198293 C245.307401,57.7188979 243.495174,61.5667373 240.789681,64.8860896 C237.835765,68.510121 233.772667,70.9847394 231.199596,74.9558483 C230.002526,76.8030225 229.169624,78.7453049 228.493568,80.8313767 L228.23925,81.623199 C227.759389,83.0986885 227.205756,84.5288256 225.821793,85.3943206 C225.380103,85.6701797 224.718469,85.5822834 224.362413,85.205907 C221.524329,82.2034602 224.495371,76.5970296 226.206695,73.6901418 C228.585512,69.6478144 232.028441,67.0618607 235.475878,64.0120851 C239.191934,60.7247641 241.562188,56.3272456 243.85492,51.9950857 C245.259314,49.3410688 246.615033,46.6298065 248.042413,43.9640701 C246.551152,42.6459043 246.073793,40.0275356 245.568562,38.2075625 L245.522526,38.0443682 C244.687371,35.1298176 244.023934,32.1395411 243.604779,29.1361927 C243.201372,26.248422 243.033118,23.4021765 243.139846,20.4982467 L243.170645,19.7585108 M250.135619,28.1985422 C249.806154,27.7468906 250.351506,27.2352891 250.803562,27.3294959 C253.55205,27.8978763 256.239195,29.5617179 258.705974,30.9071204 L258.969422,31.0499878 C260.938548,32.1119551 262.919844,33.4128201 263.95376,35.4759036 C265.07828,37.7181808 264.98564,40.3008062 264.83228,42.7375644 L264.81776,42.9655683 C264.629816,45.8877816 264.599619,48.9240347 263.981253,51.7935103 C263.664858,53.2620543 262.33483,53.6758429 261.197703,53.3287653 C259.844689,57.6014261 256.0439,60.7494653 253.267562,64.1210765 C249.727731,68.41943 250.393872,74.2228384 250.7639,79.399704 C250.913534,81.4956923 248.306661,82.091584 246.964013,80.9732728 L243.869812,78.4029952 C243.354523,77.9739812 242.839919,77.5441158 242.326717,77.1125977 C241.88713,76.742682 241.45155,76.3699617 241.019575,75.992567 L240.374267,75.4227353 C240.088069,75.1667092 238.825647,73.756312 238.45652,73.6977144 C237.562443,73.5555779 235.438297,75.9121062 234.71133,76.6512133 L234.619224,76.7434333 C233.250886,78.0853165 232.014605,79.5290693 230.863055,81.0602676 C230.651224,81.3415357 230.237027,81.1080471 230.388464,80.7830563 C231.420295,78.5725493 232.620083,76.4591033 234.044649,74.4809731 L234.332576,74.0871626 C235.280407,72.8097366 236.552745,70.5541828 238.22576,70.1769049 C240.268605,69.7165669 242.308425,71.7653763 243.794744,72.9024985 L243.888858,72.9738097 C244.596013,73.5043426 245.295055,74.0443413 245.992745,74.587946 C245.919731,70.7335814 246.406492,66.8391 248.396351,63.517522 C249.799393,61.1749734 251.901478,59.440036 253.700238,57.4269858 C255.702717,55.1854052 256.748351,52.4304202 258.561083,50.0959851 C258.794548,49.7957855 259.116351,49.6339662 259.464745,49.5825807 C259.5344,47.7058209 259.810782,45.8104351 260.02435,43.9539947 L260.086267,43.3982885 C260.302154,41.3811815 260.812351,38.9173811 259.824858,37.0282872 C258.892066,35.2439926 256.751813,33.9845146 255.166927,32.7738817 L253.872841,31.7699752 M160.934672,6.86985586 C160.107179,7.34855253 159.333771,7.9439935 158.632024,8.68818202 C156.423123,11.0316321 154.843855,13.9479857 153.306954,16.7534547 C152.479461,18.2643692 151.681714,19.7919615 150.847461,21.2992701 C150.484644,21.9551116 150.111461,22.6037411 149.734222,23.251469 C149.559799,23.5498656 149.041489,24.1430529 148.784588,24.5086112 C149.070042,24.9086146 149.365178,25.3024778 149.666236,25.6920811 C149.781101,25.8407294 157.704817,34.4732057 160.466841,37.8517176 C164.69625,43.0267802 168.476757,48.4930274 171.708757,54.3437645 C174.873602,60.0732499 177.283067,66.1394456 180.214898,71.9798154 C181.682391,74.9038317 183.321151,77.8071135 185.410165,80.3376249 C185.490841,80.4363392 185.576024,80.5296445 185.658503,80.6270065 C186.455771,78.4729419 188.498701,76.1665907 189.502076,74.8422768 L189.595855,74.7172212 C191.871461,71.6494155 194.274616,68.6740137 196.730053,65.7490959 C198.972757,63.0782509 201.272439,60.465102 203.627833,57.8950866 L204.513714,56.9333242 C206.154729,55.1605238 208.239236,52.5078591 210.641489,51.2412512 C210.384137,50.7823875 210.086222,50.3284821 209.743686,49.8804364 C207.492869,46.9389535 204.311167,44.8042196 201.171659,42.8780219 L199.135668,41.6394058 C191.461116,36.9620684 183.906121,32.0679553 177.243405,25.9906778 C173.718447,22.7750261 170.242165,19.4065701 167.279236,15.655878 L166.231375,14.3297184 M173.740081,4.55435227 C170.146165,4.85590413 166.265151,4.78423485 162.943912,5.95528378 C165.896475,8.74677954 168.70301,11.7609459 171.586165,14.5993197 C171.842616,12.6795747 172.367236,10.7832688 172.81163,8.91130335" id="ðŸ–-Ink" fill="#000000"></path>
                </g>
                <g id="head/Short-4" transform="translate(167.661972, 81.135029)" fill-rule="evenodd">
                    <path d="M182.388041,137.029312 C181.419889,128.503372 182.672841,110.682494 182.756795,109.599812 C183.287548,102.755198 180.087587,75.7268387 174.038365,78.2172334 C163.890955,70.1663847 150.3755,68.3886261 137.737504,67.5394128 C111.486456,65.7751766 83.560132,69.8251669 63.2897117,87.5306333 C53.2652198,96.7254858 43.5058993,110.098792 44.2903647,124.023366 C35.1824636,137.222233 22.342367,155.327515 33.6904141,170.758045 C37.5478293,175.687899 43.678537,177.523805 48.5243602,181.257368 C58.2712508,189.136481 64.3863059,200.444 74.2257303,208.276235 C100.293553,231.752655 144.556921,236.656817 170.168519,209.954378 C189.973509,190.615393 186.771145,161.683543 183.287548,137.029312 C180.9455,120.454093 184.276805,153.662536 182.388041,137.029312 Z" id="âœ‹-Skin" fill="#FFFFFF"></path>
                    <path d="M102.6697,31.3835252 C109.69035,29.9636622 116.899447,29.0801918 124.068965,29.3461344 L124.621734,29.3676512 C130.016135,29.5837244 136.847718,30.0617003 141.553577,33.2054573 C141.824329,32.9332042 142.25969,32.7934717 142.654574,32.982336 C148.246807,35.6575382 154.397634,37.5917072 160.285805,39.5137059 C166.146991,41.4262388 172.227657,42.68879 178.370838,43.197687 C180.682121,43.3892558 182.660136,45.8904684 181.196639,48.133852 C180.84853,48.6684417 180.509416,49.2084404 180.171651,49.7497913 C180.736541,49.6907431 181.301431,49.6298918 181.866322,49.5726465 C183.725152,49.3851344 185.582184,51.3733934 185.471994,53.1872121 C185.403182,54.3280607 185.280399,55.4553869 185.098699,56.5691905 C185.806611,56.5543158 186.510475,56.6606928 187.190502,56.9487222 C190.633814,58.4059975 190.394095,62.5163882 190.136387,65.6436928 C189.779282,69.9835154 188.15972,74.5802656 185.152669,77.8283712 C187.397838,80.1655108 188.987267,82.9565558 189.935347,86.2713725 C190.62302,88.6919009 191.00576,91.2701918 190.816863,93.7898853 L190.756644,94.5442688 C190.523041,97.2786283 190.058598,100.30591 188.095855,102.273003 C187.088408,103.287191 185.847089,103.656806 184.663787,103.539611 C185.379345,109.841099 185.838094,116.178646 186.269857,122.493656 L186.47232,125.511948 C187.435453,140.10718 188.159256,154.797466 187.969925,169.416748 C187.794071,183.078985 185.100498,196.340055 176.739583,207.433016 C169.124808,217.534328 158.191754,224.98072 145.823536,227.811431 C139.158191,229.339474 132.353422,229.447654 125.607122,228.474034 C122.336965,228.000746 119.04522,227.275039 115.941472,226.130133 C112.505806,224.859018 110.03666,222.988405 107.724928,220.184738 C106.631577,218.855026 107.157789,216.024314 109.335045,216.290257 C112.627853,216.6904 115.633804,217.172684 118.790615,218.148747 L119.242662,218.291588 C122.386888,219.301268 125.643102,220.054021 128.93035,220.374054 C135.663607,221.027641 142.499409,220.369546 148.949322,218.32314 C159.451063,214.987589 168.495603,207.554719 174.292924,198.215176 C181.174151,187.144752 181.952224,174.577837 181.852829,161.848652 C181.746308,147.880617 181.293047,133.90449 180.553082,119.950933 L180.427111,117.625554 C180.035825,110.445104 179.658032,103.260146 179.325665,96.0751886 C179.222221,93.8214378 179.064808,91.5496569 178.781013,89.3004136 C176.186386,87.7768781 173.861161,85.6763823 172.345492,83.0845689 C169.300662,84.3466693 166.098418,85.2571847 163.152084,85.9828924 C156.327526,87.665092 149.242111,88.0734717 142.295671,87.0200686 C140.421998,87.7958096 138.510996,88.4777946 136.57076,89.0646713 C136.046347,89.2977091 135.521935,89.5266902 134.997972,89.7511638 C130.320087,91.757002 125.575189,93.4563301 120.637347,94.7004006 L119.424286,95.0035749 C116.825678,95.6455883 114.003076,96.2778213 111.237502,96.4763562 C110.783251,96.6521488 110.29302,96.8008963 109.757363,96.9316139 C107.239194,97.5446341 104.625677,97.7384567 102.044543,97.5220966 C99.5299716,97.310244 97.712968,94.7635056 99.0982084,92.3790372 C100.110153,90.6391416 101.131543,88.9037535 102.161479,87.1728729 C98.5769442,88.6693634 94.8754739,89.9134339 91.1425209,90.9681892 C87.3735877,92.0319596 83.550684,92.9289524 79.7228331,93.7538252 C77.6764552,94.1910529 75.6215321,94.578698 73.5796518,95.0159257 C72.1179533,95.3269433 69.873684,95.4892134 68.6813878,96.4538187 C67.3640601,97.5130816 66.9907648,99.9831925 66.4910888,101.506728 C65.8344489,103.485521 65.2182868,105.473329 64.6560951,107.483675 C63.5366589,111.495352 62.6191621,115.565626 61.9085517,119.676467 C61.1979414,123.791816 60.7207531,127.947733 60.4553986,132.117172 C60.1904938,136.282103 60.30698,140.47408 59.880164,144.620981 C59.65034,146.820642 57.2940821,147.952025 55.5535366,146.414967 C55.3493485,146.234667 55.1435614,146.052363 54.9397731,145.868057 L54.6360397,145.590094 C53.1469063,144.237844 51.703198,142.804458 50.5118013,141.190772 C50.2959197,140.893277 50.0890331,140.58226 49.8956392,140.266735 C49.8641564,140.266735 49.8371712,140.25772 49.8056885,140.235182 L49.4753407,139.986048 C45.8378928,137.272614 39.7609416,133.735049 36.2141416,138.242866 C35.083928,139.678923 34.50527,141.507485 34.0250048,143.271598 L33.1822956,146.428845 C32.637213,148.48992 32.1242343,150.562469 31.8240989,152.671379 C31.1449713,157.395241 31.4867839,162.840303 34.7299554,166.626604 C36.0252451,168.141125 37.810766,169.222925 39.8027237,169.506898 C40.9140643,169.660153 42.0114625,169.470838 43.1133583,169.331105 C44.2332442,169.191373 45.3122025,169.416748 46.4325382,169.308568 C48.2135615,169.132775 48.9916349,171.269331 48.3259999,172.612566 C47.9661972,173.333767 47.5429793,173.955802 47.0621929,174.483179 C47.4485311,174.816735 47.8177786,175.177335 48.1730837,175.555965 C49.2255066,175.894027 50.169539,176.619735 50.8761015,177.579833 C51.4472883,178.355123 51.7436758,179.198026 51.7935984,180.086004 C51.8561141,180.306872 51.9100845,180.532247 51.9600071,180.762129 L52.9249008,182.331605 C53.1371196,182.675834 53.3485757,183.01588 53.5606794,183.349435 C56.0163328,187.225887 58.742288,190.507348 62.1289309,193.599494 C65.3896428,196.574445 68.9287521,199.238378 71.9920223,202.42969 L72.3528728,202.808599 C75.208655,205.82454 78.2188578,209.475402 77.1012207,213.860714 C76.8133785,214.987589 75.2432895,215.798939 74.2183015,215.037172 C70.9216093,212.585091 69.2615696,208.699624 66.4645534,205.724673 C63.5856821,202.659572 60.3969306,199.905489 57.5099637,196.849403 C54.779511,193.964602 52.6251924,190.696663 51.0020324,187.099677 C50.3539378,187.816369 49.4099055,188.325717 48.1011232,188.524047 C45.8523563,188.86211 43.7560559,187.541412 42.7760433,185.589663 C42.1459388,185.869129 41.5032412,186.121549 40.8551466,186.319879 C37.446016,187.365619 35.3011422,183.565795 36.5874369,180.757622 C37.2751098,179.252116 38.1341387,177.944941 39.200504,176.84511 C35.8673817,176.385345 32.4762413,174.658972 30.2859424,172.504386 C24.7904059,167.090877 24.0348202,158.954836 25.271642,151.720296 C25.9282819,147.884412 27.0612107,144.003453 28.532354,140.40196 C28.7882636,139.775417 29.0630629,139.144367 29.3639479,138.522331 C29.1975392,138.517824 29.0266329,138.445704 28.9186921,138.305971 C27.9247371,136.944706 26.7153503,135.831353 25.977305,134.307817 C25.2981775,132.910492 24.5430415,131.495136 24.0073853,130.039213 C22.9059393,127.059755 22.3662352,123.697159 22.0064325,120.546415 C21.2643395,114.09618 21.5517319,107.686513 22.5371415,101.276845 C24.2142718,90.3596765 28.2656502,79.9121892 34.2343272,70.7448324 C33.9093483,70.5736761 33.597917,70.3670854 33.3076805,70.1227893 L33.1643639,69.9974886 L32.9313917,69.7865376 C31.2281757,68.2418168 31.375245,65.3466485 32.9313917,63.7820947 L33.4228714,63.2883465 C34.0452149,62.6687057 34.5818966,62.1777847 35.5871854,61.5031018 C35.735604,61.403486 35.8871709,61.30973 36.0405368,61.2222845 C35.5143253,60.2477626 35.3317254,59.1082662 35.6982744,57.851124 C36.975574,53.4716354 43.2631262,53.6266935 47.2483908,55.5365219 C51.6573231,51.5929087 56.5461423,48.1694613 61.8451365,45.3973477 C74.4656659,38.7983654 88.7358907,34.1962062 102.6697,31.3835252 Z M37.4331081,146.730492 C39.7898158,145.959709 42.9200993,147.577902 45.0384377,148.551523 C47.7234653,149.786578 50.0082124,151.612116 52.220999,153.541327 C53.3228948,154.505932 53.5203365,156.083558 53.2464367,157.431301 C53.2190017,157.566526 53.1924663,157.706258 53.1605338,157.845991 C52.8681941,159.283884 51.2670721,160.415267 49.850349,160.374699 C46.8864743,160.293564 45.4746984,157.728796 43.7966686,155.55618 C43.5992269,155.907765 43.3518625,156.232305 43.0455805,156.47571 L42.8387615,156.637957 C42.1425054,157.169307 41.3749511,157.593981 40.455001,157.553003 C39.8028586,157.521451 39.1781512,157.354673 38.6020171,157.052671 C37.1628063,156.290903 36.5291038,154.424797 36.9199395,152.905769 C37.1628063,151.950179 37.7205005,151.201934 38.449101,150.683571 L38.1775071,150.497399 C37.5963963,150.09208 37.0663907,149.664816 36.6533481,149.034278 L36.5601368,148.885078 L36.5961171,148.885078 C36.1463637,148.109787 36.4391532,147.055032 37.4331081,146.730492 Z" id="ðŸ–-Ink" fill="#000000"></path>
                </g>
                <g id="face/Cheeky" transform="translate(239.323944, 164.974560)" fill="#000000" fill-rule="evenodd">
                    <path d="M75.2422761,99.7744501 C75.9336563,98.5722994 77.5255437,97.4584958 78.9822197,97.6293301 C85.5079662,98.3947038 85.4966986,106.307172 82.9768113,110.92646 C80.7426704,115.022427 76.1188958,117.426728 71.4910648,117.075594 C66.6293183,116.706429 62.4868958,113.847772 60.6637972,109.299252 C59.4581634,106.290494 58.901093,100.7359 62.1083042,98.7142857 C62.1677972,98.6764227 62.2660507,98.6858885 62.3133746,98.7404292 C63.8511775,100.529457 63.9115718,103.215477 65.2578254,105.207342 C66.5098817,107.059925 68.4551211,108.589771 70.7338817,108.825964 C72.4357408,109.002658 74.157431,108.388736 74.8231211,106.860693 C75.1832748,106.034182 75.1422644,105.585406 75.0068805,105.016543 L74.8838593,104.522226 C74.4576004,102.790674 74.2661666,101.472297 75.2422761,99.7744501 Z M76.9867284,65.0735184 C80.3901667,67.1424823 85.5759613,71.9669023 81.9146451,77.0961156 C77.6049258,81.6187124 71.399903,76.4332463 68.3421752,74.0880618 C65.5069068,72.2705307 62.3213239,76.9450846 64.9518875,79.0673586 C87.0470921,95.4274422 96.0137941,65.6145236 78.7081399,62.6409242 C76.8027252,62.3132464 76.0950494,64.4334618 76.9867284,65.0735184 Z M41.0463099,50.8863579 C43.1353239,47.7518412 47.9037746,48.2134094 49.0544225,51.9329997 C49.6777465,53.947853 48.8169014,55.7589671 48.8615211,57.7711159 C48.8989296,59.4708947 48.7876056,61.3649469 48.2665915,63.0110865 C47.0785352,66.7649339 43.7027606,69.4162463 39.7090704,69.3062633 C35.7284507,69.196731 32.2224225,66.6770376 30.5552676,63.1282815 C28.8822535,59.566003 29.236507,55.8793174 30.4579155,52.2570891 C30.516507,52.0830995 30.7445634,51.9988093 30.8820282,52.1453031 C32.325784,53.6797317 33.3826854,55.2996151 34.4763109,57.0179958 L35.5970404,58.779079 C36.4535282,60.105199 37.6983003,61.7992634 39.2975601,61.6928549 L39.5375318,61.6691793 C39.9819652,61.6310282 39.9138635,61.7192365 40.2566761,61.1134283 C40.4153239,60.8330617 40.3864789,60.3119945 40.4630986,59.9811439 L40.4896901,59.8693579 L40.4896901,59.8693579 L40.4751948,59.8091287 C40.4413671,59.6488975 40.4077911,59.3469657 40.3805083,58.8230244 L40.3747606,58.7073239 C40.2589296,56.2565953 39.5661972,53.1072039 41.0463099,50.8863579 Z M94.0003155,52.9731057 C93.6257803,48.9641338 99.2613859,48.0739022 101.134963,51.040289 C102.112137,52.587217 102.39664,54.5304272 102.612746,56.3714914 L102.71378,57.2453158 C102.935527,59.1362127 103.023414,61.1032864 102.202682,62.8670718 C100.910062,65.6450451 98.0990197,67.1135891 95.0666817,66.881002 C92.170907,66.6583314 89.5288789,64.9792871 88.1362028,62.4302949 C86.8945127,60.1558096 85.6600338,55.715019 87.1680901,53.3427209 C87.2591324,53.1989316 87.4412169,53.1804508 87.566062,53.2913354 C88.9911887,54.5565911 89.2233014,56.8644319 90.0706254,58.5128252 C90.9445408,60.2130549 92.270062,61.8700125 94.2788507,62.1282923 C96.2006535,62.3753034 96.9348507,61.3255063 96.4444845,59.4932068 C95.8121465,57.12767 94.2382873,55.5184919 94.0003155,52.9731057 Z M42.5685183,27.0521767 L43.4901311,26.6991548 C46.6478523,25.506181 50.9831069,24.1272411 53.5503775,26.6951826 C55.1341521,28.2786679 55.4356732,30.6113 54.305307,32.5436659 C52.9356169,34.8844115 50.4788282,34.9421076 48.1063211,35.2869314 C45.4079549,35.6790841 42.6636169,36.4246249 40.1513915,37.4874937 C37.3214197,38.6851369 34.6951662,40.1780215 32.1220958,41.8453463 C29.6765746,43.4297331 27.2396169,46.0192928 24.312293,46.5074553 C24.1928563,46.5272883 24.0571944,46.4759027 24.0260958,46.3447344 C23.361307,43.4824709 25.2087437,40.6657331 26.8574197,38.4327168 C28.8522366,35.7291174 31.2693634,33.5100743 33.9708845,31.5204631 C36.5782085,29.5998166 39.5573634,28.2119569 42.5685183,27.0521767 Z M99.9284282,37.2285828 L100.209921,37.1792501 C102.12478,36.8604419 103.860005,36.9338551 105.303076,38.4505665 C106.404597,39.6076422 106.829161,41.107288 106.30409,42.6371341 C105.819583,44.0484328 104.73609,45.4822691 103.163583,45.7779612 C97.854738,46.7768235 91.9744,46.611849 86.6389634,45.8554902 C84.1978892,45.509254 81.7348287,45.085665 79.3571485,44.41761 L78.2632369,44.100455 C76.2782454,43.5334005 74.0057649,42.9409806 72.5639211,41.4809599 C72.0456113,40.9562867 72.3444282,40.2053369 72.9645972,39.9623826 C75.4804282,38.9770427 78.9287662,39.5012652 81.6113577,39.4241869 C84.7320338,39.3349384 87.8576676,39.100999 90.9634704,38.7787127 C93.9985127,38.4631875 96.9353014,37.7775965 99.9284282,37.2285828 Z" id="ðŸ–-Ink"></path>
                </g>
                <g id="facial-hair/Full" transform="translate(223.098562, 233.488431)" fill="#000000" fill-rule="evenodd">
                    <path d="M53.0590415,42.9082747 C56.7080523,34.3587783 64.6722311,28.07537 73.8417942,25.7781469 C80.5753827,24.095502 87.6420498,24.1491987 94.5061691,24.8170223 C98.1025175,25.1644711 101.959927,25.4491986 105.349227,26.7848459 C108.24341,27.9260121 110.601966,30.082902 112.375384,32.6147659 C114.486382,35.6150087 115.922221,39.0488857 116.930459,42.5684969 C117.073593,43.0689134 117.208175,43.5729397 117.333754,44.0796735 C116.895351,46.735175 115.964531,48.995397 113.505151,50.6649562 C111.105185,52.2952581 108.241609,52.9621793 105.387036,53.1990762 C105.10707,53.064609 104.836556,52.9265319 104.588548,52.784845 C100.140148,50.2380905 97.0092095,44.2195555 91.394585,45.0340296 C86.384003,45.7614159 83.0856249,52.0664833 80.105922,55.76388 C70.5411656,56.8784235 60.9836109,54.0040744 53.201275,48.5342377 C52.8060818,46.6620753 52.7831264,44.7741198 53.0590415,42.9082747 M123.834638,36.4227144 C123.069457,34.2753004 122.10578,32.1955712 120.96341,30.236321 C117.18702,23.7570779 111.389652,18.5945303 104.507528,15.6434718 C88.2271878,8.67193436 67.1622185,13.5863042 54.0146169,25.0200768 C49.5234574,28.9286501 44.9823361,34.6723847 43.6090622,40.8506559 C43.1990154,40.9318777 42.8119241,41.1453105 42.4932489,41.4458312 C32.9942081,35.4647484 23.2120504,29.7101842 15.5575447,21.4192439 C9.99873333,15.3952941 6.13232122,8.26627661 3.7647627,0.432434469 C3.57121704,-0.212376338 2.53147176,-0.118068809 2.56297919,0.595329291 C2.57198132,0.762285204 2.58098344,0.928789884 2.58998557,1.0957458 C2.49096221,0.788907903 2.02285178,0.946839172 1.98684328,1.24465242 C0.713042785,10.7611394 -0.8803331,20.8506913 0.587013054,30.4168138 C1.46472011,36.1249011 4.05733172,40.3037625 7.52314932,44.8160844 C11.2365253,49.6528423 15.4405171,54.1516273 19.7390311,58.4658583 C22.4666746,61.2043865 25.3158467,64.3630119 28.6556346,66.3709952 C32.5400509,68.7038656 36.9465905,70.4776594 41.0920684,72.2776246 C45.3095633,74.1141396 49.5900731,75.8107727 53.951602,77.2817897 C62.6701588,80.2328482 71.6812846,82.2724177 80.8499475,83.1658575 C88.1911793,83.8788044 96.5811586,84.655375 103.616318,81.8933827 C109.00859,79.7771037 113.361117,75.9511059 116.813431,71.3480863 C120.571818,66.3348966 123.542969,60.6245532 125.185406,54.6028595 C126.892209,48.3478788 124.194273,37.4312183 123.834638,36.4227144" id="ðŸ–-Ink"></path>
                </g>
                <g id="mask/*no-mask" transform="translate(178.028169, 207.795825)"></g>
                <g id="accessories/*-None" transform="translate(188.845070, 189.765819)"></g>
            </g>
        </g>
    </g>
</svg>