<?xml version="1.0" encoding="UTF-8"?>
<svg width="282px" height="413px" viewBox="0 0 282 413" version="1.1" xmlns="http://www.w3.org/2000/svg" xmlns:xlink="http://www.w3.org/1999/xlink">
    <title>sit-mask-1</title>
    <g id="Introduction" stroke="none" stroke-width="1" fill="none" fill-rule="evenodd">
        <g id="poses-covid-19" transform="translate(-102.000000, -482.000000)">
            <g id="a-person/sitting" transform="translate(98.000000, 429.500000)">
                <g id="pose/sitting/one_leg_up-2" transform="translate(-17.459016, 137.082400)">
                    <path d="M177.211581,178.469076 C177.694183,183.496159 176.707425,188.296809 174.356924,192.355408 L173.592176,193.675837 L175.047741,194.184036 C177.69677,195.109056 180.642601,195.55874 184.053791,195.55874 C187.564347,195.55874 191.215006,195.070682 194.148336,194.678242 L196.026366,194.427217 L195.10384,192.798519 C194.36194,191.48954 194.224638,189.903245 194.079147,188.223876 C194.039918,187.772709 193.999611,187.306276 193.946587,186.84472 C191.167155,162.040686 187.653798,136.912905 184.256187,112.612619 C183.361897,106.218253 182.437431,99.6059355 181.540555,93.1017458 L178.967829,93.2007567 C178.275719,105.239804 177.604086,117.482386 176.954654,129.321928 C176.669059,134.528163 176.383248,139.73461 176.095282,144.940209 C175.068649,158.101239 175.423218,168.757951 177.211581,178.469076 M178.261493,327.209534 C174.483233,327.209534 170.697644,326.816671 167.010343,326.041969 C155.471657,323.623728 144.988703,317.918198 136.068655,312.760302 C135.613212,312.502492 135.151087,312.244682 134.676675,311.979664 C131.184441,310.028916 126.838439,307.601771 124.114833,304.640772 C121.12697,301.392493 120.612683,298.155876 122.496748,294.454734 L122.794845,293.869149 L122.483385,293.290136 C120.532501,289.664895 120.677562,285.179511 122.836014,282.383036 L124.650027,280.033064 L121.667553,280.348966 C118.660291,280.667624 115.62932,281.099286 112.697929,281.516743 C109.445595,281.979995 106.08204,282.458937 102.769569,282.779503 L101.848983,282.868761 L101.637319,283.754347 C101.519417,284.247282 101.373925,284.546646 100.352034,284.546646 C99.4659347,284.546646 98.2750574,284.287564 97.014775,284.013429 C95.4505765,283.673358 93.6775164,283.287703 91.967826,283.287703 C91.2157951,283.287703 90.5394199,283.359152 89.899687,283.506714 L89.5274435,283.592156 L89.2625407,283.863111 C89.0931236,284.036327 88.8047265,284.143818 88.5100786,284.143818 C88.2872067,284.143818 88.0805006,284.08191 87.9423373,283.973995 L87.5246141,283.647704 L86.9945929,283.705796 C77.7600665,284.718166 69.7972462,286.49485 62.6519821,289.136767 L62.6196506,289.148851 L62.4646749,289.215636 C59.880956,290.328926 57.2097265,291.480166 54.776888,291.480166 C52.9984393,291.480166 51.5542984,290.876136 50.231724,289.579241 L49.8579718,289.213092 L49.3307526,289.208004 C43.9813962,289.158816 41.5371339,282.930882 41.1991618,278.756735 L41.1566998,278.23115 L40.7488916,277.889382 C31.426208,270.078333 25.9225225,259.350597 23.9227107,245.092815 C22.1013689,232.105849 23.4998145,218.413086 25.1079839,206.731283 C28.8280477,176.457692 32.7080446,149.318739 42.5708801,123.579296 L43.0317119,122.376112 L41.8037611,121.935545 C37.5439766,120.407342 34.2884089,118.584015 31.8508285,116.361252 L31.682058,116.206905 L31.4695322,116.119767 C27.9760046,114.686759 26.2650209,109.39699 25.8238036,107.81006 L25.7884545,107.682003 L25.726809,107.564123 C25.014007,106.198959 24.8495474,104.299943 25.2758922,102.353859 L25.3215874,102.144176 L25.2950756,101.931102 C25.0648752,100.083393 25.8289766,98.151726 26.6379111,96.1064194 C27.007568,95.1720702 27.3895109,94.2063428 27.6686396,93.2444318 C28.6282389,90.495448 29.5867605,87.6979129 30.5140282,84.9919682 C32.5944532,78.9211368 34.745361,72.6435909 37.036803,66.536929 L37.3502031,65.7018027 L36.6598175,65.1261826 C35.4812262,64.143282 35.8748084,62.9863173 37.5743682,60.2199484 C37.9759256,59.5665188 38.3557131,58.9482837 38.6445413,58.3391652 C40.8230386,54.5807791 43.1578048,50.9729235 45.5852547,47.6146092 L45.6352608,47.5457044 L45.6751363,47.4710752 C58.1311746,24.2448553 80.2258831,11.4537911 107.88894,11.4537911 L108.452802,11.4548512 L108.764478,11.2676421 C113.949159,8.15484103 117.650255,2.8137645 120.079213,-5.0604647 L120.156809,-5.31149021 L120.126849,-5.5722684 C120.043649,-6.29799501 119.952474,-7.24951738 119.983728,-8.17284178 C120.062832,-10.5111529 120.980832,-12.5978024 122.502137,-13.8978771 C125.388479,-16.3644571 129.770261,-16.5709595 134.011077,-16.5709595 L134.619988,-16.5709595 C140.041982,-16.5544224 143.869818,-15.6145608 146.666709,-13.6116571 C149.916241,-11.2845828 151.712149,-7.52810481 152.157246,-2.12766415 C152.290236,-0.511687437 152.28571,1.16238132 152.281615,2.78132624 L152.280537,3.23312975 L152.33507,3.41249426 C152.724772,4.69603179 153.181293,5.9293218 153.6917,7.07844195 L154.216764,8.26063641 L155.410874,7.72763123 C156.183166,7.3831072 157.162164,7.20586284 158.404556,7.18593345 C158.76279,7.17766487 159.112185,7.17384861 159.464599,7.17384861 C162.349216,7.17384861 165.434936,7.43674694 168.41935,7.69095267 C170.667899,7.88261404 172.993181,8.08084787 175.243886,8.168834 L175.274708,8.17010609 C175.274708,8.17010609 175.585522,8.16819796 175.724978,8.16819796 C181.195255,8.16819796 185.160822,9.02706986 188.204511,10.8713865 C191.481849,12.856905 193.838385,16.0436992 195.620282,20.900322 C205.177908,48.7384996 209.107264,78.723963 212.573202,105.178532 C214.539174,119.012921 215.137091,133.195438 215.715394,146.910887 C216.326029,161.387681 216.95714,176.357409 219.19211,190.990669 L219.36864,192.147422 L220.555422,192.070885 C225.778254,191.734417 231.422258,191.009539 237.397553,190.242045 C246.476241,189.076176 255.864019,187.870448 264.939259,187.870448 C277.6283,187.870448 287.249295,190.363317 294.347355,195.490259 C299.295801,200.145892 301.85581,206.449303 301.750625,213.723955 C301.6019,224.002432 296.156627,235.366 287.878251,242.673938 L287.846997,242.70256 C277.383011,252.572272 258.282416,261.132581 231.07588,268.145819 C206.057756,274.594884 180.179614,278.099701 166.980382,279.614546 L163.713606,279.989813 L166.365221,281.90367 C167.438412,282.678584 168.417626,283.360636 169.358904,283.98926 L169.96609,284.39442 L170.631257,284.089967 C172.528039,283.221554 173.732711,283.039221 174.409733,283.039221 C175.010452,283.039221 175.735109,283.169398 175.774985,283.790178 C175.801065,284.19661 175.511375,284.800004 174.899878,284.876329 L171.652932,285.280854 L174.304116,287.168633 C176.075021,288.429697 178.717152,289.949419 181.776791,291.709566 C191.786411,297.467676 206.913248,306.169611 204.311639,313.81126 L204.140929,314.313311 L204.382768,314.78674 C205.081776,316.154659 205.141481,317.424628 204.564687,318.668942 C203.329623,321.335664 199.466008,323.359982 196.18479,324.183447 L196.128533,324.197652 L196.07357,324.216733 C190.364256,326.202676 184.371287,327.209534 178.261493,327.209534" id="âœ‹-Skin" fill="#FFDBB4"></path>
                    <path d="M152.487396,269.822315 C152.588701,269.66545 152.67923,269.444991 152.728589,269.249969 C153.420997,270.233786 164.498003,279.926209 175.452338,288.1528 C185.626837,295.793743 197.296617,301.566635 201.82711,307.936781 C203.548874,310.357686 204.423902,317.453208 204.0928,318.644885 C203.599393,319.269765 200.637754,320.984488 195.207885,323.789053 C193.367476,324.286065 178.596169,328.285683 172.034812,326.92456 C169.620942,326.558046 152.216758,320.996586 150.018215,320.0024 L131.31565,309.166751 C130.906998,308.987737 130.500533,308.809747 130.096531,308.632907 L129.549734,308.415461 C125.378792,306.74839 120.057681,303.2168 121.147161,298.126165 C122.428658,292.8872 120.129601,291.742238 120.656088,288.290898 C121.111729,285.303979 122.105977,282.262943 123.695107,279.363536 C129.833783,286.256915 137.625678,285.654892 141.550723,277.086871 L141.640732,276.912167 L141.729368,276.737006 C143.012642,274.180764 144.226021,270.933259 147.264779,269.928305 C148.941707,268.796332 151.086364,268.561034 152.487396,269.822315 Z M96.3913024,250.595898 L96.7711681,251.46684 C98.6178861,255.68471 102.538206,264.449417 104.095744,267.907277 C103.74872,267.267098 103.35212,266.652356 102.905945,266.071318 C101.602024,264.37444 103.131775,269.501994 103.143727,274.854283 C103.154813,279.81824 101.619215,284.975504 101.265444,285.061184 C100.830262,285.167174 94.7566294,282.186254 89.0628264,283.091098 C84.4657952,283.821646 77.4958103,284.644987 70.5714443,286.532364 C64.9431166,288.06648 59.344929,290.66869 55.0757258,291.552896 C51.6071725,292.271276 50.9291862,288.518899 48.662938,288.750958 C46.6212158,288.960027 46.2925157,288.909716 45.7869406,288.488287 C42.9525447,286.148239 40.2733401,276.900492 40.5406139,273.426351 C42.893139,255.012 79.2060262,249.076002 96.3913024,250.595898 Z" id="ðŸ‘Ÿ-Shoes" fill="#FFFFFF"></path>
                    <path d="M157.249674,6.0256 L161.591402,6.17853962 L161.973688,6.19404263 C163.42133,6.25631728 164.924516,6.36143214 167.043065,6.53724749 L167.621009,6.58565538 L171.803952,7.24998753 C173.079651,7.45145062 174.276561,7.63925992 175.432045,7.81916623 L177.70482,8.17106484 L180.397763,8.58299714 L180.694265,8.63002049 C184.72681,9.28029961 187.48851,10.2592174 189.770472,12.2436328 L189.870839,12.3318351 L189.914697,12.3707843 L189.955611,12.4128067 C193.440915,15.9925254 196.070795,21.6212052 198.213423,29.3041121 L198.353147,29.8093748 L198.47917,30.2727713 C199.376383,33.5991356 201.664747,45.1588651 205.344259,64.9519597 L203.451604,65.0946919 C203.220021,65.1121565 202.990698,65.1327481 202.763743,65.1564687 C195.962801,65.8672784 187.994704,69.767075 182.770717,74.7956677 C182.457728,75.0969496 182.14453,75.412226 181.831972,75.7404521 L181.644521,75.9389334 L179.960503,77.7364964 C176.081768,137.266743 174.43444,169.153701 175.018518,173.397373 L175.064434,173.725596 L175.11717,173.964832 C177.242634,183.718765 176.286162,191.154943 172.127455,195.883152 L172.000454,196.0256 L171.868839,196.169247 C167.465513,200.909338 159.987343,202.477279 149.715684,200.865826 C149.574436,200.843666 149.434994,200.821274 149.297395,200.798648 L147.595462,200.51242 L147.784627,198.705661 L147.81534,198.405662 C149.162371,185.142451 148.918357,173.537941 146.652611,163.262874 C144.033033,151.383187 138.765077,141.724772 130.391001,134.494767 L130.13629,134.276419 L130.100138,134.245864 L129.459474,135.112229 L127.723961,133.636911 C116.684415,124.271086 97.4226989,108.915844 69.9388134,87.5711852 L76.5496707,78.1057796 L76.5383054,78.0943918 C76.4728141,78.0302493 76.382069,77.9527707 76.2640934,77.8616854 L76.1562566,77.7802736 L76.103305,77.741454 C75.4851591,77.2921137 49.1179454,65.4958919 41.2770159,64.1865863 L40.8977119,64.1240839 L40.5185977,64.0632849 L40.2121424,64.0153412 L39.7302346,63.9418419 L37.7192299,63.6393601 L38.4680612,61.7515583 C38.5682943,61.4988708 38.6697834,61.2448406 38.7725723,60.9893335 C40.4915731,56.7163354 42.2100919,55.9486308 44.0715441,52.4269272 L44.2250563,52.1371652 L44.5304685,51.5204507 C48.6736029,43.256092 54.4397832,31.2668938 66.8184578,23.2416 C83.4153005,12.4816 102.609826,10.8658315 102.720414,10.925818 C104.585888,17.6734864 107.491064,23.4286137 111.435944,28.1912 C115.281699,32.8341141 122.559446,36.8459393 125.359786,37.7980279 L125.575596,37.8706506 L125.796595,37.9434729 C133.257127,40.3755866 141.398453,40.3673752 148.238411,37.8473969 L148.40624,37.7846164 L148.511253,37.7387403 C152.496782,35.9646714 155.332733,32.8571921 157.151359,28.5743604 L157.214387,28.4244828 L157.276591,28.2736532 C159.318435,23.2739818 159.932579,16.9233631 159.352822,10.1169194 L159.332114,9.87930184 L159.300882,9.53929832 L159.299158,9.51895724 L157.249674,6.0256 Z M42.0062524,121.898549 L42.6331967,122.09953 L43.0604731,122.234286 C45.2573491,122.923353 48.1881038,124.158035 51.8881688,125.167467 L55.7839218,126.228963 C56.848278,126.520946 57.6694693,126.749678 58.4756049,126.979162 L59.6822782,127.326277 L60.2155845,127.483113 L62.2966519,128.10616 L61.2167706,129.888906 L60.7864434,130.60137 C48.8308857,150.452601 38.8958323,171.738421 31.1011195,194.07336 C30.5062943,195.77777 29.9217756,197.494484 29.3481326,199.221433 L29.0052564,200.258814 L25.8652095,199.555562 C26.1442597,197.32161 26.4289589,195.148494 26.7218256,193.02206 L26.8616158,192.014916 C27.309076,188.815622 27.8022884,185.519133 28.3479744,182.064717 L28.5199166,180.980203 L28.6265722,180.208849 L28.697069,179.707468 C29.8296861,171.709796 31.1961542,164.830211 34.1974578,151.217895 L35.6268674,144.747385 C36.7373408,139.694295 38.8638025,132.078016 42.0062524,121.898549 Z" id="ðŸ‘•-Top" fill="#FFCF77"></path>
                    <path d="M197.218666,194.104079 C197.889006,190.453783 196.617515,186.684777 196.397445,183.009043 C193.069455,156.791139 189.394655,130.590616 184.525314,104.601862 C183.331204,98.3823676 182.124376,92.1883106 180.740587,86.0027327 C180.949665,82.2570453 181.132876,78.5113578 181.253581,74.7635505 C188.010867,70.5218297 195.630326,67.776688 203.510378,66.3924583 C205.639947,78.2379035 207.76736,90.0748695 209.244048,102.026305 C213.8459,131.608121 211.220581,161.709288 215.684485,191.257187 C209.491708,191.950362 203.346781,192.976345 197.218666,194.104079 M209.104592,217.150126 C204.447776,218.386394 199.78665,219.569242 195.092546,220.660304 C186.739376,222.601829 178.388362,224.551197 170.056532,226.579635 C165.897837,227.592051 161.729874,228.574155 157.579801,229.619429 C155.610381,230.115674 153.653678,230.666822 151.726504,231.305518 C150.76475,231.624336 149.824765,231.990001 148.884995,232.36563 C148.06162,232.694411 147.284801,233.147836 146.379519,233.083183 C146.325633,233.079367 146.292008,233.02722 146.31852,232.978676 C146.792069,232.109346 147.767834,231.697257 148.629361,231.257822 C149.579261,230.773236 150.569036,230.357331 151.559674,229.960292 C153.760156,229.078455 156.052029,228.430856 158.337867,227.802547 C166.645773,225.519734 175.025023,223.474763 183.395651,221.428519 C191.806155,219.372737 200.21709,217.403866 208.739246,215.846873 C209.597755,215.690219 209.969136,216.920552 209.104592,217.150126 M167.853247,287.438895 C168.225921,287.339264 168.600967,287.247901 168.974073,287.161201 C174.948936,292.127894 203.087913,305.02476 200.947782,312.728115 C200.191225,313.686265 198.38066,313.904392 197.235909,314.213883 C195.242133,314.752312 193.228957,315.21888 191.196598,315.587726 C184.62662,316.781173 177.82213,316.988914 171.260773,315.62779 C168.846902,315.261276 166.667758,314.233173 164.469215,313.238987 C157.364904,310.11864 149.540679,306.671633 142.470639,303.576936 C133.488945,300.022031 117.734877,293.015878 124.214328,281.193963 C130.353004,288.087342 138.144898,287.485531 142.069944,278.917297 C143.423556,276.316302 144.604519,272.810152 147.783784,271.758731 C149.460927,270.626757 151.605584,270.391459 153.006617,271.652741 C153.107922,271.495875 153.19845,271.275416 153.24781,271.080394 C154.827743,273.325263 156.189977,275.688841 158.041495,277.740808 C157.405858,277.774724 150.788675,282.664892 152.741283,282.667224 C155.090921,281.458938 157.425257,280.452032 159.961987,279.801254 C161.800788,281.647388 163.822585,283.364638 165.917667,284.952157 C163.882937,286.293991 162.054913,287.936836 160.585123,289.7198 C160.457952,289.876666 160.613144,290.080166 160.802822,289.995162 C163.085427,288.979778 165.432694,288.087342 167.853247,287.438895 M198.141407,320.749228 C175.287124,330.998675 151.092376,319.585669 131.60294,307.418015 C127.104765,304.910291 121.188098,301.355385 122.097476,295.451741 C125.410594,300.291245 130.872248,303.046986 136.114479,305.436001 C144.921583,309.410627 153.786668,313.258065 162.615542,317.183936 C163.449479,319.945824 167.437032,320.051814 169.847023,320.664648 C180.574619,322.742052 192.106192,321.70971 202.202245,317.567619 C201.617907,319.295257 199.706252,320.08785 198.141407,320.749228 M106.957706,280.839956 C106.393198,280.912029 105.828259,280.977531 105.263751,281.041337 C105.321732,280.295167 104.871462,279.548997 104.147236,279.317939 C104.472706,277.736356 104.593195,276.10199 104.418821,274.497513 C105.362901,276.933164 108.410469,276.193353 110.346264,275.491487 C113.111686,274.741078 115.859865,273.933646 118.592955,273.072795 C119.670672,275.071979 120.812837,277.041273 122.21624,278.851583 C117.107646,279.30522 112.046902,280.206136 106.957706,280.839956 M104.709804,273.178785 C104.574012,273.46517 104.380023,273.768302 104.375712,274.111709 C104.237764,272.926741 103.968335,271.756399 103.558802,270.635024 C103.942254,271.482945 104.326137,272.330865 104.709804,273.178785 M101.485275,266.825955 C98.971823,263.555103 94.327078,260.882034 90.0334532,261.793337 C89.7573421,261.852903 89.7508758,262.295729 90.0334532,262.351056 C95.8011794,263.133262 100.86645,267.701221 101.066905,273.607197 C101.521702,276.280265 99.659622,278.904578 100.286853,281.469537 C100.161838,281.478016 100.036823,281.484375 99.9139633,281.492855 C99.8686991,281.664558 99.8275304,281.816972 99.7736445,281.950731 C100.396781,282.05439 100.579777,283.055147 99.8447738,283.233211 C99.4095917,283.339201 98.9545795,283.394316 98.4913767,283.417633 C96.1397981,282.783813 93.6588934,282.637335 91.4105601,281.700383 C89.1863676,280.719127 89.7424696,277.961267 88.9576761,276.051327 C88.3823907,273.848642 87.7204569,271.65486 86.8865194,269.541419 C86.8261673,269.371623 86.5955358,269.409992 86.5761369,269.581696 C85.9877034,273.797979 86.0071023,278.086335 86.149361,282.336323 C85.3777155,282.414968 84.610381,282.50188 83.8406755,282.597271 C83.890466,281.40997 80.3232225,266.946784 78.443684,270.658554 C79.3899196,274.73917 79.5041576,279.002089 79.605463,283.201414 C74.025044,284.119287 68.526316,285.486559 63.1767441,287.347744 C59.4068898,288.488196 54.9233713,291.862919 51.2636597,288.812314 C48.4292638,286.472266 47.4744065,282.389318 47.7416803,278.915177 C51.4272571,258.359472 80.5387659,255.957738 97.7238267,257.477635 C99.3470841,261.216963 101.000302,264.943572 102.675074,268.661702 C102.328049,268.021522 101.93145,267.40678 101.485275,266.825955 M42.8725546,278.514535 C42.5578613,273.846734 43.3443792,268.036361 46.8083774,264.557556 C54.7360641,257.865558 65.8365498,255.760384 75.742925,253.337664 C80.3574939,252.42827 85.0350015,251.824127 89.7314769,251.523115 C91.397843,251.391687 93.5144794,251.7688 94.6911308,250.4081 C95.2970234,251.841085 95.9111066,253.27195 96.5256208,254.702816 C76.8033986,252.123019 35.6559457,261.085323 47.1788965,288.059784 C44.7389451,285.420633 43.1223695,282.207227 42.8725546,278.514535 M29.1036415,192.111467 C29.6554326,188.105044 30.2587386,184.10286 30.8967471,180.107036 C33.5050379,160.994915 38.8957787,142.393666 42.109531,123.410852 C47.6724909,125.216922 53.3695188,126.592673 58.9865801,128.21856 C46.8148437,148.428738 36.8588934,169.889598 29.1036415,192.111467 M74.8081132,173.305656 C73.7379402,168.226402 72.5377945,163.050486 71.9922541,157.887075 C71.9676821,157.654957 72.3252687,157.630368 72.3890695,157.834292 C73.2829281,160.693479 73.8920537,163.657808 74.6460246,166.556636 C75.4027975,169.465638 76.1063312,172.387783 76.8514648,175.299753 C77.0894247,176.229709 77.3280313,177.15903 77.5668534,178.088562 C77.7099742,178.09471 77.8526639,178.099585 77.994707,178.102765 C78.540463,178.115484 78.7040604,178.799543 78.2649985,179.084233 C78.1367502,179.167329 78.0082863,179.24025 77.8793913,179.305328 C80.1611339,188.166518 82.4991333,197.007782 85.0507362,205.801138 C88.023942,216.048254 91.3713312,226.171785 94.046656,236.501573 C94.108517,236.740686 93.9977277,236.907515 93.835639,236.9798 C95.2271873,241.680033 96.3932772,246.442377 97.6654144,251.178647 C97.9303172,252.164779 96.4715194,252.803899 95.972752,251.880513 C95.2047708,250.458339 95.0351381,248.514906 94.6592304,246.952189 C94.2356876,245.191907 93.8332681,243.427597 93.4314951,241.662439 C92.7924089,238.854763 92.2190634,236.012959 91.7463767,233.165855 C89.984956,228.747555 88.4076093,224.276047 87.0117502,219.720384 C83.885724,209.51736 81.0021843,199.244595 78.4354933,188.89149 C77.6776427,185.835373 76.9348801,182.775017 76.2261733,179.707242 C72.9994885,179.756845 69.6279584,176.112272 66.3855389,178.052526 C66.2355206,178.142405 66.0835625,177.938056 66.2016803,177.8185 C67.4942942,176.510795 69.2809335,176.396749 71.0167046,176.720443 C72.1446433,176.930727 73.2260246,177.329674 74.3302535,177.630261 C74.816735,177.762749 75.3161491,177.859836 75.8209517,177.932121 C75.4728491,176.392086 75.1335838,174.850355 74.8081132,173.305656 M144.324528,269.475706 C142.675621,270.552564 141.33063,272.144322 140.382239,273.855213 C134.303699,289.732519 127.803125,281.227879 119.726498,272.708401 C126.56138,270.132844 135.614203,268.203825 140.856434,263.084507 C141.763872,265.348454 142.873921,267.504291 144.324528,269.475706 M142.14991,230.747162 C141.622045,228.134932 141.187078,225.506592 140.79134,222.872104 C140.411553,220.345513 139.818162,217.638952 139.914941,215.081413 C139.918605,214.97945 140.062588,214.961432 140.093626,215.057671 C140.915278,217.607155 141.161428,220.42649 141.682612,223.052499 C142.186768,225.59096 142.740715,228.119882 143.298757,230.64732 C144.444586,235.835955 146.064825,240.945099 147.045548,246.164895 C147.150733,246.724099 146.39396,246.920392 146.188332,246.397437 C144.224516,241.405943 143.206935,235.980738 142.14991,230.747162 M30.980809,113.045028 C28.3255298,110.189656 26.238854,106.5436 26.6421357,102.674964 C28.237157,100.550924 28.7652383,97.7803443 29.6942304,95.3256153 C33.3261369,85.0530621 36.6972359,74.7018643 40.6500865,64.5397527 C49.0586506,67.1216697 57.3309912,70.2186982 65.1338783,74.2865954 C66.5691818,75.0179266 67.9898285,75.7768151 69.3930161,76.5632611 C70.8630222,77.3857437 72.4666651,78.8144892 74.2295947,78.4053677 C72.3028522,81.1293114 68.3346979,83.9634847 67.6641424,87.1113884 C67.5199438,88.1076946 68.2269262,89.0319276 69.313265,88.8093486 C86.3172693,100.868894 103.877807,112.674063 119.950663,126.107026 C131.986607,135.620903 141.226954,143.336977 145.354825,158.773364 C148.137491,168.772463 148.145897,179.223079 147.73658,189.504112 C147.656829,191.502872 147.654674,193.548691 147.493016,195.560382 C147.734425,197.06544 147.275317,200.128552 145.581146,200.183667 C145.619728,200.548272 145.740648,200.885321 145.932482,201.182093 C145.878596,201.253954 145.822555,201.322 145.764358,201.391953 C145.680296,200.980712 145.598389,200.57159 145.520578,200.160349 C144.201668,194.326658 144.024923,187.558135 144.244561,181.34712 C144.337245,179.566487 141.602215,179.608883 141.449179,181.34712 C141.037491,186.042478 140.625587,190.737836 140.214115,195.431074 C139.720305,198.472988 140.498632,202.451853 138.062992,204.764556 C135.586398,202.479411 136.405247,197.972715 136.526167,195.024072 C136.719941,190.214245 136.929233,185.406538 137.108134,180.59671 C137.164176,179.072574 134.635636,178.680411 134.348963,180.229985 C133.53658,184.647649 132.657163,189.052594 131.710712,193.444821 C131.139737,195.142781 130.747233,202.761344 127.893654,201.438589 C126.192801,200.279058 127.419458,193.480858 127.195293,191.229629 C127.300909,186.773809 127.363201,182.324348 127.691043,177.879126 C127.82468,176.085775 124.89954,175.704211 124.498845,177.455166 C123.847904,180.289339 123.224983,183.123512 122.66026,185.976764 C121.420885,190.786591 121.871371,197.307098 117.396689,200.503757 C115.644321,188.009653 118.165964,175.60246 118.519671,163.152872 C118.308223,159.118892 117.614388,155.125187 117.002245,151.139962 C116.325439,146.732897 115.930994,141.935789 117.515238,137.685589 C117.081996,135.782008 115.379203,140.931003 115.219485,141.359203 C113.937218,138.83664 110.813994,138.641619 108.343866,137.855173 C102.853975,136.0809 97.2302322,134.743306 91.675894,133.166174 C76.9454417,129.081318 62.1979614,125.060057 47.4463859,121.047275 C41.553429,119.419268 35.3500896,117.492369 30.980809,113.045028 M178.488159,179.502893 C176.455584,168.503036 176.511626,157.357337 177.380266,146.236864 C178.335123,128.990167 179.261744,111.739231 180.253459,94.4946535 C184.557861,125.706596 189.146781,156.882502 192.655612,188.194075 C192.905642,190.37323 192.86706,192.679573 193.968487,194.62343 C187.881541,195.437433 181.393468,196.257796 175.474862,194.190991 C178.07216,189.707613 178.988219,184.603133 178.488159,179.502893 M46.3727641,51.9629763 C56.6328461,30.9324356 77.5532741,16.0026807 101.01539,12.7466671 C101.041255,12.7721047 101.069276,12.7975423 101.095141,12.8250997 C101.017546,12.8950531 100.946416,12.971366 100.881753,13.0497986 C101.51308,12.5855623 102.379564,13.1685074 102.099573,13.810595 C102.446598,14.6014925 102.702879,15.4154959 103.024039,16.2125409 C103.160047,16.1998221 103.297995,16.1871033 103.435727,16.1659053 C104.828138,18.9258856 105.582539,22.1077061 107.037457,24.8592071 C114.999847,38.6336708 134.648784,44.2257045 149.387643,38.6652558 C161.083028,33.605504 162.742713,19.19722 161.694956,8.12126241 C161.64107,7.37509264 161.261929,6.84726231 160.755187,6.53565164 C167.133332,7.55527568 173.511261,8.58337892 179.895657,9.55212775 C182.971246,10.0184839 186.131328,10.6925804 188.506401,12.8017819 C197.854734,22.406598 199.522825,48.2533255 202.667819,61.6907408 C195.143198,62.4771868 186.732694,66.7591838 181.339583,71.9505752 C181.594139,66.0490506 181.229655,60.1772033 180.548538,54.3180747 C180.537761,54.0319016 180.05947,53.9343908 180.014206,54.2481213 C178.66706,60.1878023 177.630296,66.1783585 177.20352,72.2640937 C175.429382,96.7543609 174.37559,121.293171 172.856009,145.800185 C172.33655,154.819936 171.687764,163.91812 172.974558,172.906074 C177.117087,191.409813 169.812536,200.491038 150.206708,197.415207 C152.588247,173.965974 150.86196,147.135659 131.193623,130.876578 C130.594197,130.3426 129.874498,130.378636 129.329173,130.696606 C113.338007,117.129883 96.4609578,104.563706 78.4975698,93.6210837 C78.6268959,91.3594686 72.9602596,89.3604967 71.3736445,87.8003236 C77.264446,81.7080169 81.7501199,74.301434 85.6620173,66.852455 C86.0071023,66.0426912 90.5052778,57.8941781 89.0740695,58.4071698 C84.7998437,64.7305347 80.5495431,71.0941758 75.5166044,76.8812312 C75.7903446,74.2124024 68.8649347,72.4230788 66.7332104,71.2041935 C58.4970811,67.7406514 49.8863373,65.0294266 41.012415,63.6259067 C42.6095917,59.6557323 44.3554933,55.7447004 46.3727641,51.9629763 M155.972494,9.06881323 C155.703065,8.60881653 155.446568,8.13822081 155.200849,7.6612657 C156.032846,7.69306271 156.843289,7.72273992 157.662139,7.85840715 C157.625712,9.17480326 157.698781,10.5017984 157.714085,11.8287935 C157.304337,10.8579249 156.502731,9.97184825 155.972494,9.06881323 M294.959197,194.447487 C275.303793,180.17699 243.019485,189.268814 220.249695,190.735716 C215.908651,162.315551 217.680417,133.431149 213.634452,104.964348 C209.907922,76.5251047 205.978566,47.6894585 196.619671,20.4415429 C192.757133,9.90613443 186.075287,6.77730889 175.073951,6.86210091 C169.491161,6.64376146 163.587643,5.75132545 158.162415,5.87851348 C156.972615,5.89759169 155.72893,6.05445692 154.655524,6.53353184 C153.14672,3.13761144 152.327439,-0.508445419 151.913811,-4.18205968 C151.887731,-4.41523774 151.590496,-4.45763375 151.501908,-4.2350547 C150.225891,-1.03627574 150.090314,2.45503568 150.784148,5.80432047 C151.286365,8.20393463 154.276167,17.6476459 157.748572,13.9528336 C158.024252,21.7007044 156.319303,30.9536336 148.717087,34.9748951 C135.433362,40.7577109 117.071003,35.4921265 109.376319,23.2184816 C107.88907,20.7658724 106.606371,18.156186 104.959835,15.8012996 C116.43321,12.5580049 122.873432,-1.16770337 120.170733,-11.6204396 C118.500272,-3.49100472 115.454428,5.59234042 107.869671,10.1456719 C80.2497222,10.0841977 57.2859426,22.6440156 44.3102292,46.8351789 C41.7711278,50.3476883 39.42386,53.9979848 37.2725213,57.7118753 C36.1150531,60.1962815 32.7247708,63.6515563 35.6020598,66.0511704 C32.2785959,74.9076969 29.3299621,83.8871718 26.2132043,92.8136517 C25.3572814,95.7877318 23.4001472,98.9080782 23.7904964,102.034784 C23.3680313,103.961683 23.3874302,106.240468 24.3552201,108.093174 C25.273435,111.395823 27.3338145,115.838925 30.7503931,117.240113 C33.649452,119.883504 37.3158455,121.704413 41.1395856,123.075924 C30.9420112,149.68366 27.0602899,178.379399 23.605129,206.492193 C20.2187265,231.086118 18.4708849,261.002863 39.6887629,278.777178 C40.1006664,283.862791 43.1223695,290.343022 49.0974484,290.398136 C53.2356664,294.455223 58.2793822,292.229432 62.8857605,290.245511 C70.6604114,287.370849 78.8144186,285.776971 86.9166955,284.888775 C87.7853355,285.567111 89.1993002,285.45455 89.9728855,284.664076 C94.8810246,283.534222 101.683359,288.108752 102.675074,283.964542 C109.003213,283.35192 115.262594,282.202988 121.584698,281.532919 C118.920366,284.984166 119.112415,290.073595 121.118909,293.802324 C116.008374,303.839791 127.913053,309.652284 135.191738,313.771057 C145.018362,319.45191 155.2806,324.842775 166.518818,327.197661 C176.399328,329.272946 186.749938,328.643577 196.283207,325.328209 C201.292436,324.070955 208.288975,319.943916 205.316632,314.129303 C209.084546,303.063944 182.624437,291.597944 174.841164,286.056573 C178.022369,285.660382 178.138763,279.067803 169.864267,282.855886 C168.864145,282.187937 167.881267,281.499002 166.909167,280.79756 C200.378532,276.956481 264.298147,266.389276 288.520915,243.546306 C301.82835,231.800491 309.506222,208.041767 294.959197,194.447487" id="ðŸ–-Ink" fill="#000000"></path>
                </g>
                <g id="Head" stroke-width="1" transform="translate(74.362477, 38.736000)">
                    <g id="head/Short-4">
                        <path d="M87.2246998,65.4214026 C86.7616938,61.3508946 87.3609015,52.8427378 87.4010516,52.325837 C87.6548772,49.0580378 86.1245377,36.1539874 83.231576,37.3429674 C78.3787096,33.4992802 71.9151197,32.6505314 65.8711634,32.2450946 C53.3169422,31.4028018 39.9615423,33.3363738 30.2674784,41.7894298 C25.473396,46.1792946 20.8061284,52.5640634 21.1812888,59.2120218 C16.8255539,65.5135082 10.6849453,74.1574466 16.1120007,81.5243882 C17.9567592,83.8780306 20.8886901,84.7545402 23.2061418,86.5370418 C27.867465,90.2987378 30.7919103,95.697245 35.4974866,99.4365602 C47.9640823,110.644822 69.1324604,112.986198 81.380873,100.23775 C90.8523506,91.004809 89.3208621,77.1919818 87.6548772,65.4214026 C86.5348234,57.5079565 88.1279765,73.3625419 87.2246998,65.4214026 Z" id="âœ‹-Skin" fill="#FFDBB4"></path>
                        <path d="M49.1004437,14.9833215 C52.457978,14.3054415 55.9056344,13.8836495 59.3343631,14.0106175 L59.5987175,14.0208902 C62.1785194,14.1240492 65.4456347,14.3522475 67.6961506,15.8531599 C67.825634,15.7231791 68.0338398,15.6564671 68.2226877,15.7466359 C70.8971003,17.0238479 73.8386531,17.9472711 76.6545941,18.8648839 C79.4576297,19.7779775 82.3656287,20.3807527 85.303525,20.6237135 C86.4088657,20.7151735 87.3548257,21.9093183 86.6549271,22.9803687 C86.4884485,23.2355959 86.3262716,23.4934055 86.16474,23.7518607 C86.4348914,23.7236695 86.7050428,23.6946175 86.9751942,23.6672871 C87.8641557,23.5777639 88.7522568,24.5270111 88.6995601,25.3929759 C88.6666515,25.9376471 88.6079323,26.4758623 88.5210365,27.0076215 C88.8595861,27.0005199 89.1961999,27.0513071 89.521414,27.1888199 C91.1681329,27.8845615 91.0534906,29.8469703 90.9302448,31.3400279 C90.7594644,33.4119735 89.9849301,35.6065831 88.5468472,37.1573143 C89.6205698,38.2731263 90.3806932,39.6056447 90.8341002,41.1882255 C91.1629708,42.3438495 91.3460112,43.5747935 91.255674,44.7777615 L91.226875,45.1379241 C91.1151575,46.4433793 90.8930436,47.8886836 89.9543875,48.8278255 C89.4725888,49.3120255 88.8789441,49.4884895 88.3130458,49.4325375 C88.6552518,52.4410335 88.8746423,55.4667455 89.0811274,58.4816975 L89.1779526,59.9227098 C89.6385585,66.8908581 89.984708,73.9043873 89.8941626,80.8840175 C89.810063,87.4067295 88.5218969,93.7379135 84.5233983,99.0339855 C80.8817319,103.856618 75.6531412,107.411722 69.7382025,108.763178 C66.5505883,109.492706 63.2962966,109.544354 60.0699664,109.079522 C58.5060566,108.853562 56.9318225,108.50709 55.4474956,107.960482 C53.8044331,107.353618 52.6235963,106.460538 51.5180405,105.121994 C50.9951599,104.487154 51.2468136,103.135698 52.2880579,103.262666 C53.8628004,103.453704 55.3003571,103.68396 56.8100611,104.149957 L57.0262465,104.218154 C58.5299314,104.700202 60.0871735,105.059586 61.6592566,105.212378 C64.8793492,105.524418 68.1484821,105.210226 71.2330688,104.233218 C76.2553895,102.640738 80.5808228,99.0920895 83.3533159,94.6331455 C86.6441727,89.3478335 87.0162761,83.3480575 86.9687415,77.2708095 C86.9177995,70.6021013 86.701033,63.9295302 86.3471547,57.2677345 L86.2869104,56.1575375 C86.0997832,52.7294015 85.9191088,49.2991135 85.7601582,45.8688255 C85.7106878,44.7928255 85.6354068,43.7082175 85.4996858,42.6343695 C84.2588392,41.9069935 83.1468308,40.9041615 82.4219819,39.6667615 C80.9658316,40.2693215 79.4344002,40.7040255 78.0253542,41.0504975 C74.7615986,41.8536239 71.3730915,42.0485951 68.0510469,41.5456727 C67.1549875,41.9160319 66.2410757,42.2416295 65.3131831,42.5218199 C65.0623897,42.6330783 64.8115963,42.7423999 64.561018,42.8495695 C62.3238806,43.8072095 60.0546951,44.6185135 57.6932365,45.2124655 L57.113106,45.3572089 C55.8703555,45.663723 54.5204829,45.9655677 53.1978831,46.0603535 C52.9806435,46.1442815 52.7461968,46.2152975 52.4900262,46.2777055 C51.2857447,46.5703775 50.0358644,46.6629135 48.8014705,46.5596175 C47.5989096,46.4584735 46.7299514,45.2425935 47.3924245,44.1041855 C47.876374,43.2735135 48.3648404,42.4449935 48.8573935,41.6186255 C47.1431367,42.3330895 45.3729569,42.9270415 43.5877209,43.4306095 C41.7852777,43.9384815 39.957024,44.3667295 38.1264042,44.7605455 C37.1477507,44.9692895 36.1650105,45.1543615 35.1885079,45.3631055 C34.4894697,45.5115935 33.4161772,45.5890655 32.8459771,46.0495935 C32.2159824,46.5553135 32.0374588,47.7346095 31.7984953,48.4619855 C31.4844658,49.4067135 31.1897943,50.3557455 30.9209335,51.3155375 C30.3855777,53.2308175 29.9467968,55.1740735 29.6069567,57.1366975 C29.2671166,59.1014735 29.0389075,61.0856175 28.9120052,63.0762175 C28.785318,65.0646655 28.8410259,67.0660255 28.6369068,69.0458655 C28.5269965,70.0960415 27.4001469,70.6361935 26.5677537,69.9023615 C26.4701034,69.8162815 26.3716884,69.7292451 26.2742293,69.6412522 L26.1289728,69.5085455 C25.4168141,68.8629455 24.7263795,68.1786095 24.1566096,67.4081935 C24.053367,67.2661615 23.9544262,67.1176735 23.8619381,66.9670335 C23.8468819,66.9670335 23.8339766,66.9627295 23.8189203,66.9519695 L23.6609358,66.8330261 C21.9213738,65.5375617 19.0151513,63.8486349 17.3189405,66.0007855 C16.7784306,66.6863968 16.5016949,67.5594003 16.2720144,68.4016345 L15.8689997,69.9089871 C15.6083211,70.8929989 15.3629957,71.8824885 15.2194599,72.8893375 C14.894676,75.1446335 15.0581434,77.7442495 16.6091478,79.5519295 C17.2286032,80.2750015 18.0825053,80.7914815 19.035133,80.9270575 C19.5666172,81.0002255 20.0914335,80.9098415 20.6184008,80.8431295 C21.1539716,80.7764175 21.6699694,80.8840175 22.2057553,80.8323695 C23.0575064,80.7484415 23.4296098,81.7684895 23.1112786,82.4097855 C22.9392077,82.7541055 22.7368092,83.0510815 22.5068794,83.3028655 C22.6916406,83.4621135 22.8682284,83.6342735 23.0381484,83.8150415 C23.541456,83.9764415 23.9929271,84.3229135 24.3308314,84.7812895 C24.603994,85.1514335 24.7457375,85.5538575 24.7696123,85.9778015 C24.7995096,86.0832495 24.8253203,86.1908495 24.8491951,86.3006015 L25.3106429,87.0499107 C25.4121338,87.2142546 25.5132599,87.3766015 25.6146957,87.5358495 C26.7890799,89.3865695 28.0927324,90.9532255 29.7123502,92.4294975 C31.2717431,93.8498175 32.9642759,95.1216495 34.4292449,96.6452655 L34.6018169,96.8261668 C35.9675575,98.2660567 37.4071477,100.009074 36.8726523,102.102738 C36.7349955,102.640738 35.984121,103.028098 35.4939339,102.66441 C33.9173338,101.493722 33.1234415,99.6386975 31.785805,98.2183775 C30.4090224,96.7550175 28.8840437,95.4401455 27.5033894,93.9810895 C26.1975861,92.6038095 25.1673113,91.0436095 24.3910562,89.3263135 C24.0811134,89.6684815 23.6296423,89.9116575 23.0037343,90.0063455 C21.9282909,90.1677455 20.9257625,89.5372095 20.4570843,88.6053935 C20.1557451,88.7388175 19.8483833,88.8593295 19.5384405,88.9540175 C17.9080684,89.4532815 16.8823104,87.6391455 17.4974641,86.2984495 C17.8263347,85.5796815 18.237154,84.9556015 18.7471293,84.4305135 C17.1531071,84.2110095 15.5313384,83.3867935 14.4838566,82.3581375 C11.855688,79.7735855 11.494339,75.8892255 12.0858329,72.4352655 C12.3998624,70.6039135 12.9416707,68.7510415 13.6452258,67.0315935 C13.7676113,66.7324655 13.8990305,66.4311855 14.0429248,66.1342095 C13.963342,66.1320575 13.8816083,66.0976255 13.829987,66.0309135 C13.354641,65.3810095 12.7762676,64.8494655 12.423307,64.1220895 C12.0985231,63.4549695 11.7373892,62.7792415 11.4812186,62.0841455 C10.9544664,60.6616735 10.69636,59.0562815 10.5242891,57.5520335 C10.1693928,54.4725215 10.3068344,51.4123775 10.7780937,48.3522335 C11.5801594,43.1400895 13.5176782,38.1521839 16.3721201,33.7754463 C16.2167032,33.6937318 16.0677652,33.5950999 15.9289634,33.4784666 L15.8604241,33.4186447 L15.7490082,33.3179311 C14.9344674,32.5804407 15.0048014,31.1982111 15.7490082,30.4512519 L15.9840519,30.2155236 C16.2816796,29.9196907 16.5383406,29.6853121 17.0191068,29.3632007 C17.0900861,29.3156415 17.162571,29.2708799 17.2359162,29.2291311 C16.9842625,28.7638687 16.8969365,28.2198431 17.0722337,27.6196503 C17.6830856,25.5287671 20.6900253,25.6027959 22.5959261,26.5145983 C24.7044404,24.6318135 27.0424544,22.9973695 29.5766292,21.6738895 C35.6122326,18.5233615 42.4367813,16.3261695 49.1004437,14.9833215 Z M17.9018953,70.0530015 C19.02896,69.6850095 20.5259772,70.4575775 21.5390449,70.9224095 C22.8231243,71.5120575 23.9157748,72.3836175 24.9740111,73.3046735 C25.5009783,73.7652015 25.5954023,74.5184015 25.4644133,75.1618495 C25.4512929,75.2264095 25.4386026,75.2931215 25.4233313,75.3598335 C25.2835237,76.0463215 24.517808,76.5864735 23.8402787,76.5671055 C22.4228443,76.5283695 21.7476809,75.3038815 20.945185,74.2666175 C20.8507611,74.4344735 20.7324623,74.5894175 20.5859869,74.7056255 L20.4870785,74.7830862 C20.1541031,75.0367667 19.7870303,75.2395172 19.3470761,75.2199535 C19.0351976,75.2048895 18.7364394,75.1252655 18.4609108,74.9810815 C17.772627,74.6173935 17.4695671,73.7264655 17.6564791,73.0012415 C17.772627,72.5450175 18.039337,72.1877855 18.3877806,71.9403055 L18.2578944,71.851422 C17.9799857,71.6579123 17.7265175,71.4539251 17.5289853,71.1528895 L17.4844082,71.0816575 L17.5016153,71.0816575 C17.2865266,70.7115135 17.4265493,70.2079455 17.9018953,70.0530015 Z" id="ðŸ–-Ink" fill="#000000"></path>
                    </g>
                    <g id="face/Driven" transform="translate(34.271403, 40.027200)" fill="#000000">
                        <path d="M38.5546627,49.6933961 C37.0917864,50.2675653 35.3634388,50.4031868 33.853485,49.9139838 C32.40969,49.4460978 31.098666,48.4048095 30.3053876,47.095246 C29.598831,45.9288449 29.3037588,44.5446643 29.7213358,43.1647641 C29.7413124,43.0987151 29.8061183,43.056476 29.8686353,43.04 C30.2102622,43.3505271 30.421328,43.6589408 30.6322093,43.9658479 C30.9877364,44.483266 31.3440529,44.9953732 31.8331748,45.4377445 C32.5448247,46.0813058 33.5036378,46.6039963 34.4552237,46.7763748 C35.3869307,46.945528 36.3405042,46.7960408 37.174762,46.3507886 C37.6821121,46.0802147 38.0923258,45.7183891 38.4985293,45.3549566 C38.9408511,44.9592088 39.3761649,44.5574367 39.9853514,44.3339676 C40.473529,44.154856 40.9863195,44.3059948 41.3802558,44.6056089 C41.8036573,44.9276333 42.1081242,45.4317067 42.0912449,45.9586941 C42.0651035,46.7751723 41.7071304,47.456252 41.1877222,48.0181675 C40.4855155,48.7778415 39.4926407,49.325205 38.5546627,49.6933961 Z M36.8178979,29.3462116 C38.4455478,30.3339895 40.9255864,32.6372946 39.1746097,35.0861162 C37.1135427,37.245323 34.1460715,34.7696449 32.6837532,33.6499921 C31.327823,32.7822549 29.8043596,35.01401 31.0623923,36.0272395 C41.6291355,43.8379743 45.9173436,29.6045018 37.6411405,28.1848271 C36.7299008,28.0283851 36.391464,29.0406318 36.8178979,29.3462116 Z M19.6980814,15.6597382 C21.9164542,15.5538598 23.8714329,16.5485142 25.9854827,17.0004342 C27.9391682,17.4183526 29.8639709,17.1674294 31.763986,16.6358854 C34.8475501,15.7731486 36.1222738,20.4860286 33.0807407,21.4045022 C30.8658166,22.0733438 28.5336369,22.119827 26.2607316,21.7750766 C24.2417365,21.4686318 22.5492896,20.4873198 20.6242714,19.9159638 C18.9722364,19.4258783 17.0288198,19.6295576 15.2841791,19.8602911 L14.606946,19.9512566 C13.6003582,20.0866174 12.5883819,20.2224086 11.5917092,20.4188862 C10.726949,20.5895398 9.86369763,20.901795 8.98104736,20.9379486 C8.88081967,20.9422526 8.79589557,20.8122718 8.85904979,20.7255462 C9.88436585,19.3201658 11.8604896,18.2112595 13.4323952,17.4716505 L13.5389284,17.4217958 C15.4792502,16.5186014 17.5376897,15.7626038 19.6980814,15.6597382 Z M18.8853375,26.0228192 L18.8850596,25.9743376 C18.8880772,24.6020532 19.6886076,21.4688288 21.6673198,21.4688288 C22.9034564,21.4688288 23.6539494,23.6012036 23.7838715,25.7993758 L23.7883841,25.8890009 C23.8457572,27.255634 23.4701262,30.2428559 21.6673198,30.2428559 C19.8454348,30.2428559 18.9040699,27.4135847 18.8853375,26.0228192 L18.8853375,26.0228192 Z M48.0171701,26.0228192 L48.0174481,25.9743376 C48.0144305,24.6020532 47.2139001,21.4688288 45.2351878,21.4688288 C44.0299547,21.4688288 43.2863864,23.4959176 43.1295417,25.6346685 L43.1186361,25.7993758 C43.0405889,27.1198684 43.3918689,30.2428559 45.2351878,30.2428559 C47.0570728,30.2428559 47.9984378,27.4135847 48.0171701,26.0228192 L48.0171701,26.0228192 Z M47.986837,13.9883383 L48.1283652,13.9914432 C50.4407149,14.0714976 52.8192365,15.4390936 53.4365528,17.7363536 C53.4684532,17.8555744 53.3212371,17.935844 53.233942,17.854068 C51.3326074,16.0767921 48.7755353,17.7750281 46.8716299,18.6651793 L46.1723202,18.9877222 C43.7178775,20.1278033 40.9263094,21.4681687 38.2010823,20.6185272 C36.9067441,20.2150272 36.0846615,18.8872432 36.4538874,17.5461168 C36.7823562,16.352836 38.225006,15.3500028 39.4745412,15.7807062 L39.5312007,15.8012752 C40.5464101,16.1889939 41.7946759,15.7961642 42.8431649,15.408864 L43.7044574,15.0859474 C45.0894367,14.5612489 46.4808201,13.9742211 47.986837,13.9883383 L47.986837,13.9883383 Z" id="ðŸ–-Ink"></path>
                    </g>
                    <g id="facial-hair/Full-2" transform="translate(26.511840, 72.737600)" fill="#000000">
                        <path d="M53.4831533,24.0428972 C52.7309068,23.7971388 51.992024,23.511138 51.2496925,23.2354668 C47.4541885,21.3320228 42.8693646,20.986842 38.8889244,22.5898668 C36.9352389,23.376638 35.113466,24.7902868 33.1530987,25.7167228 C32.6875249,25.890174 32.2180713,26.0477004 31.7434447,26.1798332 C31.4524611,26.0786892 31.1614775,25.9710892 30.8726494,25.8634892 C28.7933021,25.081022 26.8374611,24.11585 24.9385237,23.0540532 C24.7359129,22.7693436 24.525758,22.4925964 24.2998685,22.2268244 C25.6739578,22.0320684 27.0193798,21.7084076 28.2365534,21.3744172 C31.9740762,20.3522172 35.4960556,18.6865692 39.2206457,17.6191772 C42.6887392,16.6228012 46.4521272,16.0783452 49.9353087,17.3157452 C51.5885267,17.9032412 53.0434447,18.9318972 54.6513986,19.6248412 C55.4833962,19.9820732 56.4813622,20.3328492 57.453463,20.3844972 C56.8262316,21.8844412 56.0330319,23.2853932 54.9488485,24.4517772 C54.4530987,24.3463292 53.9616597,24.1978412 53.4831533,24.0428972 Z M61.5705577,12.2946988 C61.2377587,12.5708004 59.864316,13.4617284 59.4187878,13.992842 C59.3036876,13.9491564 59.1892341,13.9043948 59.0754271,13.858342 C58.8794982,13.6181788 58.5908855,13.5127308 58.2966688,13.5191868 C56.2427556,12.5654204 54.4143009,11.2176228 52.7826372,9.5276572 C51.6230137,8.3289932 50.4353695,7.0743772 48.8856123,6.3792812 C47.0599596,5.5572172 45.264483,5.9359692 43.3461466,6.0607852 C41.3049505,6.1963612 39.2896196,5.6174732 37.2505789,5.8950812 C35.7590185,6.0995212 34.3622972,6.7300572 33.1552541,7.6188332 C30.6915929,9.4329692 28.9931108,11.9809372 26.9109614,14.1781292 C24.5486056,16.6701452 21.6430804,18.2626252 18.4120847,19.0760812 C18.3732869,19.0502572 18.3323336,19.0244332 18.2913804,19.0007612 C15.9096257,16.8487612 13.7585024,14.4191532 11.8552541,11.8302972 C9.99726988,9.3016972 5.09796812,-2.0802308 3.91463479,-3.0787588 C3.42319581,-3.4940948 2.88433728,-3.6727108 2.36918852,-3.6576468 C1.43588555,-3.6361268 0.5737119,-2.9883748 0.187889192,-1.9683268 C-0.467362781,-0.2338148 -0.139736794,2.0085692 -0.0880063752,3.8227052 C-0.0233433515,6.0435692 0.123226169,8.2622812 0.356013054,10.4723852 C0.586644505,12.6566652 0.892716151,14.8344892 1.27422799,16.9972492 C1.46606163,18.0904652 1.67944961,19.1815292 1.91439192,20.2682892 C1.98767668,20.6104572 2.08036035,20.9160412 2.19244293,21.2001052 C2.30668094,21.7359532 2.42954068,22.2696492 2.56102216,22.7990412 C3.41888494,26.2659132 4.77249757,29.7370892 7.35686308,32.2958172 C10.0468449,34.9621452 13.7024611,36.7332412 17.0972699,38.3171132 C20.3304211,39.8256652 23.7187635,41.1663612 27.1954787,42.2165372 C30.215242,43.5830572 33.4483931,44.6633612 36.6944769,45.2314892 C40.2681867,45.8577212 44.0251084,45.8964572 47.4759584,44.6569052 C49.1722851,44.0478892 50.7759281,43.1978492 52.2308461,42.1390652 C54.2935965,41.0695212 56.1494253,39.5997052 57.6690064,37.6542972 C60.3906964,34.1677777 61.6897844,29.9367792 62.2582228,25.5739423 C62.4037138,24.4572799 62.9507049,20.1775395 62.9937172,19.5112174 C63.1326235,17.359358 63.2715299,15.2075647 63.4104362,13.055646 C63.4759614,12.0401172 62.227534,11.7502428 61.5705577,12.2946988 Z" id="ðŸ–-Ink"></path>
                    </g>
                    <g id="mask/medical-mask" transform="translate(4.741955, 60.471200)">
                        <path d="M84.7640419,15.1406542 C84.3577426,10.0010326 77.8666527,7.82385424 74.6335015,7.17825424 C63.8675392,4.65137584 54.7082374,11.134491 41.8709029,11.2670542 C40.5752714,11.287283 36.8700801,11.0690702 35.1470261,10.614783 C26.4048009,8.63149984 17.6716284,6.52189424 9.09386278,3.92077184 C7.83271828,4.21559584 7.45961263,5.85907824 8.32545052,6.79541344 C16.5411032,9.70427184 29.1100862,12.3090526 35.7475301,12.6055982 C35.6201439,21.1662542 31.0937322,29.7742542 24.8429733,34.5086542 C34.7844821,45.4849302 57.9702714,49.094695 71.6154627,43.3331454 C78.3277001,41.3218862 85.4106721,23.3182542 84.7640419,15.1406542" id="ðŸŽ¨-Color" fill="#FFFFFF"></path>
                        <path d="M8.40017942,4.17985112 C8.03052247,4.16543272 8.24606588,3.08943272 9.07871008,3.24287032 C19.8222559,5.75145672 33.2075018,10.5297575 44.2504375,10.4946799 C52.3740531,10.2291231 59.6531697,5.71207512 67.8216184,5.68474472 C73.3125868,5.78976232 80.314299,6.56943192 84.157007,10.9685503 C89.2255103,27.0177359 77.81184,48.8467631 59.8534095,48.9730855 L56.4543393,48.7275465 C44.8681097,47.8753068 32.1751222,46.5117678 24.7071163,36.6976471 L24.6489196,36.7475735 L24.6489196,36.7475735 C23.5321891,35.9995383 23.5944812,34.3840319 24.5435188,33.5531447 L24.571755,33.5974759 L24.571755,33.5974759 C24.5898607,33.5682087 24.6099062,33.5402327 24.6293051,33.5116111 L24.6172347,33.4739511 L24.6172347,33.4739511 C24.9823652,33.0913255 25.3975018,32.7334479 25.7749183,32.4130151 L25.7768582,32.4192559 L25.7768582,32.4192559 C31.3844356,27.7547959 35.0458716,20.7016159 35.256673,13.3979431 C33.4001976,13.9071063 2.20977262,7.45110632 7.7774745,5.87562712 C11.7598546,7.21976632 15.7657289,8.43370952 19.852432,9.39995752 C19.9209748,9.36143672 20.0192626,9.37155112 20.0569827,9.44751672 C25.0562966,10.6758783 30.1564848,11.3778607 35.2633549,11.9462039 C35.2579663,11.7025975 35.2486979,11.4589911 35.2361964,11.2149543 C26.1557835,9.45009912 17.2538406,6.82982392 8.40017942,4.17985112 Z M81.9269948,10.6933095 C63.3021041,1.29961432 54.0570161,15.1776471 36.0442687,11.3565559 C37.9287647,19.7506471 33.275398,28.8000223 26.9550185,34.2846095 C36.1384611,42.2203247 40.1130817,43.4220015 52.159803,44.7099735 L53.7335721,44.8970691 C56.0997709,45.1768473 58.4881772,45.437819 60.8617216,45.4786679 C73.1735613,44.5840815 82.4766305,31.7951759 83.8688254,20.2077319 L83.8763707,19.8876357 C83.938775,16.9469032 83.8034855,13.8341044 82.498616,11.1400647 C82.2582851,11.0565671 82.0494235,10.9061423 81.9269948,10.6933095 Z M55.9979414,18.0672882 C56.641554,17.9226738 57.2983148,18.6237954 56.899344,19.237761 C55.6101788,21.222981 52.4574253,21.9921058 50.2524162,22.3041458 C47.6988734,22.6654666 45.2235729,22.3805418 42.7978473,21.5109186 C42.6678746,21.4642202 42.677143,21.234817 42.8327653,21.2533242 C45.1360622,21.5270586 47.5104885,21.3267074 49.7484757,20.7181218 C52.0177168,20.2767466 53.8500513,18.7699162 55.9979414,18.0672882 Z M73.4976887,16.6373057 C73.4870046,16.2600601 75.3445577,17.3515545 75.6383434,17.4985361 C77.9071533,18.8586001 80.5333342,18.9582377 83.0355777,19.4921489 C83.6188382,19.7155265 83.617976,20.4558145 83.0353622,20.6791921 C79.9123537,21.5083577 75.1727696,19.3322553 73.4976887,16.6373057 Z" id="ðŸ–-Ink" fill="#000000"></path>
                    </g>
                    <g id="accessories/*-None" transform="translate(10.130540, 51.863200)"></g>
                </g>
            </g>
        </g>
    </g>
</svg>